<svg xmlns="http://www.w3.org/2000/svg" xmlns:xlink="http://www.w3.org/1999/xlink" version="1.1" width="500" height="500" viewBox="0 0 500 500" xml:space="preserve">
<desc>Created with Fabric.js 5.2.4</desc>
<defs>
</defs>
<rect x="0" y="0" width="100%" height="100%" fill="transparent"></rect>
<g transform="matrix(1 0 0 1 250 250)" id="9a1441fb-c58a-4478-bbe9-24e12c131932"  >
<rect style="stroke: none; stroke-width: 1; stroke-dasharray: none; stroke-linecap: butt; stroke-dashoffset: 0; stroke-linejoin: miter; stroke-miterlimit: 4; fill: rgb(255,255,255); fill-rule: nonzero; opacity: 1; visibility: hidden;" vector-effect="non-scaling-stroke"  x="-250" y="-250" rx="0" ry="0" width="500" height="500" />
</g>
<g transform="matrix(Infinity NaN NaN Infinity 0 0)" id="c151d961-44ad-4380-bbfa-e677c1015bde"  >
</g>
<g transform="matrix(NaN NaN NaN NaN 0 0)"  >
<g style=""   >
</g>
</g>
<g transform="matrix(0.52 0 0 0.52 250 250)"  >
<g style="opacity: 1;" vector-effect="non-scaling-stroke"   >
		<g transform="matrix(1 0 0 1 0 0)"  >
<path style="stroke: none; stroke-width: 1; stroke-dasharray: none; stroke-linecap: butt; stroke-dashoffset: 0; stroke-linejoin: miter; stroke-miterlimit: 4; fill: rgb(255,255,255); fill-opacity: 0; fill-rule: nonzero; opacity: 1;" vector-effect="non-scaling-stroke"  transform=" translate(-696.94, -377.05)" d="M 1002 753 C 668.038818 753 334.577637 753 1.058233 753 C 1.058233 502.401337 1.058233 251.802673 1.058233 1.102003 C 464.87796 1.102003 928.75592 1.102003 1392.816895 1.102003 C 1392.816895 251.66655 1392.816895 502.333282 1392.816895 753 C 1262.802368 753 1132.651245 753 1002 753 M 647.056213 527.53125 C 647.360474 527.736633 647.664734 527.942017 648.247864 528.662964 C 650.490479 529.076782 652.746155 529.88678 654.972778 529.813843 C 658.510681 529.697937 659.726562 531.133972 659.59491 534.508789 C 659.452332 538.163818 659.635742 541.83075 659.643188 545.492615 C 659.657959 552.704407 660.643982 553.930603 667.957031 553.978699 C 671.130981 553.999573 672.130127 555.176514 672.013611 558.060669 C 671.825684 562.712708 671.584167 567.368469 671.601624 572.021729 C 671.635254 581.009521 672.077576 583.280579 681.279541 582.822266 C 682.243408 582.774292 683.225281 583.087341 685.051697 583.360352 C 685.051697 599.302612 685.051697 615.231079 684.872986 631.492859 C 684.911743 631.990295 684.9505 632.487732 684.835449 633.521179 C 684.835938 633.891785 684.836426 634.262329 684.350647 635.189209 C 683.751648 637.254272 683.236389 639.348022 682.540649 641.379944 C 676.359619 659.431213 656.500916 663.544495 644.284851 648.921204 C 640.82843 644.783691 639.260254 639.068726 636.860474 633.22876 C 636.782349 614.210632 636.704224 595.192566 636.868408 575.636108 C 636.189636 573.206665 635.510864 570.777161 634.319275 567.807861 C 626.835938 565.173584 624.758179 565.729309 620.905396 571.634766 C 620.933289 572.083984 620.961243 572.533264 620.848267 573.913086 C 620.904602 594.59491 620.960938 615.276733 620.985596 636.580566 C 621.691528 639.649292 622.251221 642.760498 623.126892 645.779968 C 629.306885 667.090637 653.726135 679.661621 673.922852 671.984253 C 673.922852 671.984253 674.005493 671.901306 674.571045 671.912292 C 675.068115 671.665894 675.565247 671.419434 676.792847 671.096741 C 690.981262 666.218079 701.421326 648.629333 701.664185 634.054077 C 701.919434 618.733337 701.811646 603.405334 701.741455 588.081116 C 701.725098 584.512756 702.442383 582.354004 706.73175 582.752747 C 711.83197 583.226929 713.333618 579.926941 713.398438 575.507263 C 713.474243 570.344421 713.731445 565.178406 713.612976 560.02063 C 713.525452 556.21405 714.505676 554.149597 718.863708 554.201965 C 723.494446 554.25769 725.647095 551.248596 725.865051 546.807007 C 725.962891 544.812439 725.908081 542.809998 725.911682 540.811157 C 725.929504 530.870239 725.928162 530.870239 735.521545 529.1745 C 735.992371 528.792297 736.463196 528.410034 737.53772 527.651733 C 738.586609 525.32428 740.280212 523.066956 740.542358 520.654053 C 741.006531 516.381958 740.600464 512.01532 741.359985 507.303741 C 747.991821 507.147064 754.636108 506.657837 761.25293 506.904266 C 774.25415 507.388489 786.658325 504.732391 798.619202 500.074493 C 822.314392 490.847015 839.996399 474.467804 852.496887 452.606384 C 858.608093 441.918854 863.004822 430.419952 863.315308 417.17334 C 863.72113 414.07254 864.474487 410.972412 864.480774 407.870819 C 864.58197 357.88324 864.660767 307.895355 864.579102 257.907837 C 864.547791 238.759857 864.100769 219.612549 863.669067 199.603455 C 861.14502 190.999481 858.620911 182.395508 856.083313 173.400955 C 856.083313 173.400955 856.021545 173.015015 856.159363 172.578781 C 853.083069 166.869843 850.546936 160.780243 846.838257 155.516876 C 829.460632 130.854156 805.592224 116.293564 775.210571 110.872375 C 770.921509 110.484894 766.636353 109.824257 762.34259 109.762306 C 750.517395 109.591698 738.688721 109.665947 726.861389 109.654999 C 719.846802 109.648499 719.883667 109.657921 719.790222 102.869339 C 719.751343 100.043404 719.729614 97.190521 719.339172 94.400383 C 716.292725 72.626602 689.649109 61.884422 672.093262 75.108231 C 662.511292 82.325768 659.673218 91.94178 660.765686 103.238647 C 661.228149 108.021553 659.265747 109.834793 654.529114 109.754997 C 644.370605 109.583855 634.204224 109.877327 624.045959 109.700989 C 597.924133 109.247551 574.744141 117.080223 554.301697 133.442581 C 528.918762 153.759354 515.651794 180.159958 515.441833 212.494308 C 515.029602 275.959778 515.222656 339.429657 515.338074 402.8974 C 515.350647 409.824341 516.495667 416.749268 517.39325 424.468109 C 525.771301 465.53299 562.472961 503.126556 609.930359 506.675201 C 621.326477 506.792236 632.722534 506.909302 644.065063 507.952667 C 644.360962 513.625122 644.65686 519.297607 644.935852 525.047302 C 644.935852 525.047302 645.013062 525.064392 645.170532 525.641785 C 645.746582 526.181702 646.322693 526.721619 647.028809 527.127625 C 647.028809 527.127625 646.894958 526.997437 647.056213 527.53125 z" stroke-linecap="round" />
</g>
		<g transform="matrix(1 0 0 1 -51.73 -109.71)"  >
<path style="stroke: none; stroke-width: 1; stroke-dasharray: none; stroke-linecap: butt; stroke-dashoffset: 0; stroke-linejoin: miter; stroke-miterlimit: 4; fill: rgb(255,0,0); fill-rule: nonzero; opacity: 1;" vector-effect="non-scaling-stroke"  transform=" translate(-645.21, -267.34)" d="M 517.115356 423.67511 C 516.495667 416.749268 515.350647 409.824341 515.338074 402.8974 C 515.222656 339.429657 515.029602 275.959778 515.441833 212.494308 C 515.651794 180.159958 528.918762 153.759354 554.301697 133.442581 C 574.744141 117.080223 597.924133 109.247551 624.045959 109.700989 C 634.204224 109.877327 644.370605 109.583855 654.529114 109.754997 C 659.265747 109.834793 661.228149 108.021553 660.765686 103.238647 C 659.673218 91.94178 662.511292 82.325768 672.093262 75.108231 C 689.649109 61.884422 716.292725 72.626602 719.339172 94.400383 C 719.729614 97.190521 719.751343 100.043404 719.790222 102.869339 C 719.883667 109.657921 719.846802 109.648499 726.861389 109.654999 C 738.688721 109.665947 750.517395 109.591698 762.34259 109.762306 C 766.636353 109.824257 770.921509 110.484894 775.227173 111.119316 C 770.247864 112.552185 765.305786 114.181946 760.24054 114.796593 C 755.379089 115.38649 750.389954 114.924034 745.45697 114.924034 C 745.397522 115.791153 745.338135 116.658272 745.278687 117.525391 C 748.012329 118.018127 750.728943 118.77343 753.482971 118.951729 C 760.282593 119.391945 766.733765 120.41732 770.55481 126.576981 C 751.257507 126.496086 732.42981 126.422516 713.602783 126.270752 C 706.492737 126.21344 703.918213 123.34861 703.630066 116.359055 C 703.338074 109.274857 703.276733 102.072342 701.874939 95.1735 C 700.490906 88.361794 694.880188 85.326401 687.855469 85.988243 C 682.199768 86.521103 677.619568 91.384758 677.141724 97.980515 C 676.76947 103.120285 676.93396 108.300758 676.907959 113.463387 C 676.858887 123.214851 674.066101 126.254471 664.181519 126.361015 C 648.355408 126.531601 632.526123 126.384369 616.698914 126.485283 C 613.057434 126.508499 609.318176 126.546814 605.795959 127.340935 C 588.290039 131.28775 572.383484 138.477463 559.428589 151.286057 C 542.872559 167.65509 533.200623 187.132019 533.068359 210.744568 C 532.947021 232.404282 533.05072 254.065262 533.055176 275.725677 C 533.055542 277.497894 533.055176 279.270111 533.055176 281.706512 C 537.026062 280.675659 540.137573 279.546478 543.34259 279.119568 C 547.109314 278.617828 548.289062 276.859528 548.226318 273.149261 C 548.015198 260.659973 548.097595 248.165665 548.07782 235.673264 C 548.075195 234.007721 547.553467 232.003891 548.287598 230.752426 C 549.518372 228.654297 551.428101 225.7202 553.302856 225.523117 C 556.119324 225.227051 558.401611 227.594696 558.224976 231.124161 C 558.150146 232.619522 558.215881 234.121719 558.210449 235.620789 C 558.162781 248.770493 558.113403 261.920197 558.161377 275.202637 C 558.832092 275.355713 559.405823 275.376099 560.305176 275.184631 C 561.130981 274.850586 561.631226 274.728394 562.105713 274.911346 C 562.696533 279.144043 563.31311 283.071625 563.548218 287.185974 C 559.10083 287.776123 557.822205 289.883484 557.859131 294.042542 C 558.080872 319.039337 558.012939 344.038818 558.021912 369.037384 C 558.023682 373.947174 556.14502 375.52301 551.731262 374.65686 C 547.736206 373.872894 548.174561 370.748627 548.165649 368.003265 C 548.089783 344.671478 548.083679 321.339508 548.05719 298.007568 C 548.054993 296.07254 548.056946 294.137482 548.056946 290.943665 C 542.396118 292.916412 537.767822 294.529327 532.987793 296.512207 C 532.556091 299.171173 532.037659 301.459656 532.032532 303.749298 C 531.974121 329.946991 531.958374 356.144989 532.048218 382.342529 C 532.057129 384.936859 532.838562 387.528534 533.542542 390.309082 C 536.603638 391.622894 539.383667 392.749054 541.813416 393.997864 C 540.272034 395.747559 538.536438 397.23233 538.062622 399.046661 C 537.685547 400.490234 538.849915 402.336334 539.330017 404.003723 C 540.188416 402.596252 541.422791 401.283875 541.809021 399.756958 C 542.283386 397.882141 542.049255 395.828064 542.418213 393.825134 C 546.1427 394.891876 549.570251 395.984955 552.957825 397.455353 C 552.43866 402.629608 549.914307 406.12973 545.624146 408.806641 C 541.615845 407.628906 537.980469 406.391144 532.55481 404.543854 C 533.613708 413.441223 533.201782 421.369507 535.668945 428.268097 C 540.367737 441.406555 547.847473 453.270416 556.553711 464.088165 C 546.380188 467.074951 542.921753 465.055664 540.62616 454.926086 C 539.670471 450.70871 539.030762 446.417511 537.999939 442.220642 C 537.680054 440.918274 536.811829 439.173706 535.739929 438.730011 C 530.332642 436.491669 527.9328 431.730225 525.302307 427.115173 C 523.462158 423.886688 521.683289 420.623291 519.209106 416.1745 C 518.240112 419.645844 517.677734 421.660461 517.115356 423.67511 M 746.277527 124.86261 C 746.583862 124.821686 746.890259 124.780762 747.196594 124.739845 C 747.105896 124.545532 747.015259 124.351219 746.924622 124.156914 C 746.622864 124.375511 746.321106 124.594116 746.277527 124.86261 M 517.824402 410.511475 C 517.937195 410.476868 518.050049 410.442261 518.162842 410.407654 C 518.063049 410.405884 517.963196 410.404114 517.824402 410.511475 z" stroke-linecap="round" />
</g>
		<g transform="matrix(1 0 0 1 -6.86 61.62)"  >
<path style="stroke: none; stroke-width: 1; stroke-dasharray: none; stroke-linecap: butt; stroke-dashoffset: 0; stroke-linejoin: miter; stroke-miterlimit: 4; fill: rgb(255,0,0); fill-rule: nonzero; opacity: 1;" vector-effect="non-scaling-stroke"  transform=" translate(-690.08, -438.67)" d="M 545.99707 408.746582 C 549.914307 406.12973 552.43866 402.629608 553.242065 397.497437 C 554.05365 397.466064 554.541016 397.769897 555.331299 398.18573 C 556.46582 398.514648 557.297607 398.731598 558.541748 398.946686 C 564.588379 400.13913 570.195312 401.485931 575.861755 402.500336 C 596.176941 406.137177 615.542236 402.277924 634.201904 394.359497 C 648.747681 388.186798 663.26709 381.907776 679.035217 379.779999 C 701.94928 376.687988 723.955811 380.089417 745.205994 389.476013 C 753.926453 393.328003 763.153198 396.331665 772.428162 398.563934 C 788.17749 402.354462 804.123596 401.785248 819.889587 398.092377 C 827.779358 396.244324 835.583984 394.03302 843.696289 391.849884 C 844.31842 391.522278 844.671265 391.33078 845.185547 391.01532 C 845.346863 390.891388 845.714905 390.717621 845.734985 390.66626 C 845.755066 390.614868 845.908325 390.451569 845.926025 390.330322 C 845.943787 390.209076 846.097168 390.017914 846.152344 389.83075 C 846.229065 389.132416 846.250732 388.621185 846.223633 387.637482 C 846.221924 381.747925 846.268982 376.330902 846.44342 370.757538 C 846.738037 370.388641 846.899841 370.172058 847.346802 370.150848 C 848.348938 372.593384 849.283447 374.795502 849.705872 377.091858 C 850.088318 379.170746 849.22998 381.695007 850.100952 383.429138 C 853.760803 390.716309 853.835754 398.443573 853.369446 406.205017 C 853.259521 408.036346 851.449463 409.746918 850.493896 411.551453 C 849.591003 413.256592 847.645813 415.692047 848.185608 416.595245 C 849.126404 418.169739 851.931763 419.988525 853.405029 419.602661 C 856.440002 418.8078 859.112 416.627228 862.018433 415.293274 C 862.368713 416.290649 862.633911 417.011536 862.89917 417.732391 C 863.004822 430.419952 858.608093 441.918854 852.496887 452.606384 C 839.996399 474.467804 822.314392 490.847015 798.619202 500.074493 C 786.658325 504.732391 774.25415 507.388489 761.25293 506.904266 C 754.636108 506.657837 747.991821 507.147064 740.851074 507.193115 C 738.73114 505.38031 737.235229 503.546387 735.478638 502.010681 C 733.467896 500.252747 730.948181 499.0177 729.152527 497.087585 C 726.796204 494.55481 725.175598 494.384399 722.604736 496.934113 C 720.893616 498.631165 718.238525 500.227295 715.955444 500.300781 C 712.381653 500.415802 708.743225 499.301819 705.180664 498.494293 C 704.148438 498.260254 702.517761 497.356384 702.46051 496.653717 C 701.999939 491.001831 697.880981 492.050385 694.376343 492.013794 C 689.719849 491.965149 685.001343 491.555725 680.426208 492.170471 C 677.207092 492.602997 674.204285 494.542542 671.064392 495.699188 C 668.337646 496.703613 665.578796 497.638947 662.788208 498.446411 C 660.293579 499.168304 657.762085 499.88443 655.197327 500.198792 C 653.548401 500.400879 651.809875 499.871582 650.111511 499.670074 C 651.264832 498.516144 652.239136 497.028107 653.615662 496.290649 C 655.43811 495.31427 657.575073 494.925018 660.923584 493.851715 C 658.733032 492.783997 658.171631 492.274078 657.606506 492.269806 C 646.801453 492.187531 635.993958 492.067352 625.193542 492.282684 C 624.131897 492.303802 623.052002 494.411865 622.089172 495.636658 C 620.827393 497.241791 619.997253 499.494843 618.380737 500.423981 C 616.822205 501.319763 614.500977 500.991211 612.512634 501.014862 C 608.396606 501.063782 606.898193 502.652222 608.996826 506.574738 C 562.472961 503.126556 525.771301 465.53299 517.254333 424.071594 C 517.677734 421.660461 518.240112 419.645844 519.209106 416.1745 C 521.683289 420.623291 523.462158 423.886688 525.302307 427.115173 C 527.9328 431.730225 530.332642 436.491669 535.739929 438.730011 C 536.811829 439.173706 537.680054 440.918274 537.999939 442.220642 C 539.030762 446.417511 539.670471 450.70871 540.62616 454.926086 C 542.921753 465.055664 546.380188 467.074951 556.84613 464.256592 C 560.223145 466.772919 562.830811 469.348083 565.688721 471.606598 C 580.075378 482.976044 596.377686 489.533722 615.214478 490.862885 C 653.178528 490.92041 690.656372 490.976501 728.134155 490.946625 C 742.452454 490.935211 756.77063 490.726929 771.512695 490.591125 C 772.905701 490.341888 773.867615 490.071869 774.845154 489.883331 C 806.630005 483.753265 828.102173 464.940399 840.733459 435.678497 C 844.816467 426.219666 846.663635 416.120483 845.916809 405.306335 C 844.220398 405.631378 843.089417 405.754852 842.01355 406.068024 C 821.142029 412.143616 800.117676 416.468262 778.178345 412.926605 C 765.683594 410.909546 753.308167 408.384338 741.948792 402.716003 C 729.557434 396.532715 716.46344 392.93869 702.843567 392.064636 C 684.196594 390.867981 666.243347 394.010956 649.142151 402.298309 C 631.046387 411.067627 612.002502 416.17453 591.528381 416.036133 C 575.863525 415.930237 560.947937 412.568146 545.99707 408.746582 z" stroke-linecap="round" />
</g>
		<g transform="matrix(1 0 0 1 -22.46 204.83)"  >
<path style="stroke: none; stroke-width: 1; stroke-dasharray: none; stroke-linecap: butt; stroke-dashoffset: 0; stroke-linejoin: miter; stroke-miterlimit: 4; fill: rgb(255,0,0); fill-rule: nonzero; opacity: 1;" vector-effect="non-scaling-stroke"  transform=" translate(-674.48, -581.88)" d="M 609.463623 506.624969 C 606.898193 502.652222 608.396606 501.063782 612.512634 501.014862 C 614.500977 500.991211 616.822205 501.319763 618.380737 500.423981 C 619.997253 499.494843 620.827393 497.241791 622.089172 495.636658 C 623.052002 494.411865 624.131897 492.303802 625.193542 492.282684 C 635.993958 492.067352 646.801453 492.187531 657.606506 492.269806 C 658.171631 492.274078 658.733032 492.783997 660.923584 493.851715 C 657.575073 494.925018 655.43811 495.31427 653.615662 496.290649 C 652.239136 497.028107 651.264832 498.516144 650.111511 499.670074 C 651.809875 499.871582 653.548401 500.400879 655.197327 500.198792 C 657.762085 499.88443 660.293579 499.168304 662.788208 498.446411 C 665.578796 497.638947 668.337646 496.703613 671.064392 495.699188 C 674.204285 494.542542 677.207092 492.602997 680.426208 492.170471 C 685.001343 491.555725 689.719849 491.965149 694.376343 492.013794 C 697.880981 492.050385 701.999939 491.001831 702.46051 496.653717 C 702.517761 497.356384 704.148438 498.260254 705.180664 498.494293 C 708.743225 499.301819 712.381653 500.415802 715.955444 500.300781 C 718.238525 500.227295 720.893616 498.631165 722.604736 496.934113 C 725.175598 494.384399 726.796204 494.55481 729.152527 497.087585 C 730.948181 499.0177 733.467896 500.252747 735.478638 502.010681 C 737.235229 503.546387 738.73114 505.38031 740.450378 507.385345 C 740.600464 512.01532 741.006531 516.381958 740.542358 520.654053 C 740.280212 523.066956 738.586609 525.32428 737.032715 527.925537 C 736.036743 528.521484 735.545715 528.843689 735.054688 529.165833 C 725.928162 530.870239 725.929504 530.870239 725.911682 540.811157 C 725.908081 542.809998 725.962891 544.812439 725.865051 546.807007 C 725.647095 551.248596 723.494446 554.25769 718.863708 554.201965 C 714.505676 554.149597 713.525452 556.21405 713.612976 560.02063 C 713.731445 565.178406 713.474243 570.344421 713.398438 575.507263 C 713.333618 579.926941 711.83197 583.226929 706.73175 582.752747 C 702.442383 582.354004 701.725098 584.512756 701.741455 588.081116 C 701.811646 603.405334 701.919434 618.733337 701.664185 634.054077 C 701.421326 648.629333 690.981262 666.218079 676.236084 671.098877 C 675.121399 671.367859 674.563416 671.634583 674.005493 671.901306 C 674.005493 671.901306 673.922852 671.984253 673.607117 671.825684 C 669.450317 667.694092 673.562561 666.679993 675.830505 665.291687 C 682.843201 660.99884 688.376526 655.4729 688.278687 646.81366 C 688.232727 642.740967 686.050903 638.692444 684.836914 634.632935 C 684.836426 634.262329 684.835938 633.891785 684.935547 632.950073 C 685.041016 631.972534 685.046387 631.56604 685.051697 631.159546 C 685.051697 615.231079 685.051697 599.302612 685.051697 583.360352 C 683.225281 583.087341 682.243408 582.774292 681.279541 582.822266 C 672.077576 583.280579 671.635254 581.009521 671.601624 572.021729 C 671.584167 567.368469 671.825684 562.712708 672.013611 558.060669 C 672.130127 555.176514 671.130981 553.999573 667.957031 553.978699 C 660.643982 553.930603 659.657959 552.704407 659.643188 545.492615 C 659.635742 541.83075 659.452332 538.163818 659.59491 534.508789 C 659.726562 531.133972 658.510681 529.697937 654.972778 529.813843 C 652.746155 529.88678 650.490479 529.076782 647.934204 528.208496 C 647.378662 527.50177 647.136841 527.249573 646.894958 526.997437 C 646.894958 526.997437 647.028809 527.127625 646.812561 526.940247 C 646.068604 526.190002 645.540833 525.627197 645.013062 525.064392 C 645.013062 525.064392 644.935852 525.047302 644.955688 524.544922 C 644.68988 518.370422 644.404297 512.698364 644.118652 507.026367 C 632.722534 506.909302 621.326477 506.792236 609.463623 506.624969 M 708.885193 516.072449 C 713.569214 515.742737 718.253235 515.412964 723.388794 514.975098 C 723.388794 514.975098 723.848328 514.908691 724.386902 514.937988 C 727.447632 513.165527 727.382202 512.414246 723.796326 509.263062 C 723.895264 505.727905 721.204956 506.149139 718.751831 505.643677 C 718.167542 505.725342 717.583252 505.807007 716.068298 506.009003 C 702.366394 505.973358 688.664551 505.937744 674.581604 505.81366 C 674.06604 505.843689 673.550537 505.873718 672.125854 506.028168 C 668.368469 506.371155 664.611084 506.714142 660.654358 507.649811 C 660.699646 509.075348 660.744934 510.500916 660.906555 512.593506 C 660.9552 513.268677 661.003784 513.943909 661.79126 514.995911 C 667.877197 515.367432 673.963196 515.738953 680.609741 516.579407 C 687.419678 517.165894 694.221924 517.982117 701.043884 518.209717 C 703.319092 518.285645 705.64447 516.85498 708.885193 516.072449 M 708.367249 530.305969 C 698.454529 530.101562 688.539185 529.757751 678.633606 529.939941 C 677.780273 529.955627 676.366577 533.465332 676.396179 535.333191 C 676.415222 536.537048 678.550049 538.670959 679.816223 538.731689 C 686.952637 539.074463 694.113281 538.898865 701.265564 538.931763 C 709.227112 538.968323 709.227051 538.983093 708.367249 530.305969 M 689.90448 554.380859 C 686.91272 555.694641 684.761536 564.901978 687.461243 565.857849 C 690.493225 566.931458 695.220215 566.795166 697.552429 565.014526 C 699.115784 563.820923 698.374817 558.668884 697.444336 555.666321 C 697.124512 554.634216 693.107117 554.747986 689.90448 554.380859 M 685.385071 662.772339 C 685.487854 662.555847 685.590698 662.339355 685.693542 662.122864 C 685.559814 662.084106 685.426025 662.045349 685.292297 662.006592 C 685.257141 662.242432 685.221924 662.47821 685.385071 662.772339 z" stroke-linecap="round" />
</g>
		<g transform="matrix(1 0 0 1 157.56 -80.72)"  >
<path style="stroke: none; stroke-width: 1; stroke-dasharray: none; stroke-linecap: butt; stroke-dashoffset: 0; stroke-linejoin: miter; stroke-miterlimit: 4; fill: rgb(255,0,0); fill-rule: nonzero; opacity: 1;" vector-effect="non-scaling-stroke"  transform=" translate(-854.5, -296.34)" d="M 861.93335 415.016846 C 859.112 416.627228 856.440002 418.8078 853.405029 419.602661 C 851.931763 419.988525 849.126404 418.169739 848.185608 416.595245 C 847.645813 415.692047 849.591003 413.256592 850.493896 411.551453 C 851.449463 409.746918 853.259521 408.036346 853.369446 406.205017 C 853.835754 398.443573 853.760803 390.716309 850.100952 383.429138 C 849.22998 381.695007 850.088318 379.170746 849.705872 377.091858 C 849.283447 374.795502 848.348938 372.593384 847.229858 369.999268 C 846.666443 369.445618 846.500671 369.251495 846.260254 368.672089 C 846.24408 367.483643 846.292542 366.689056 846.405884 365.666962 C 846.428589 364.664276 846.386414 363.88916 846.28125 362.712097 C 846.257935 361.500458 846.297485 360.690765 846.417114 359.617615 C 846.443298 358.271118 846.389465 357.188019 846.27832 355.741089 C 846.24939 354.888031 846.277771 354.398895 846.412354 353.521332 C 846.454102 345.799469 846.389465 338.465973 846.260132 330.690735 C 846.248291 328.173492 846.301086 326.098053 846.530334 323.951263 C 846.591858 323.245575 846.476868 322.611237 846.306519 321.512299 C 846.220886 319.800537 846.190552 318.553375 846.138184 317.088928 C 846.080383 316.582642 846.044189 316.293732 846.109985 315.694489 C 847.630493 312.968903 849.334351 310.668396 850.36499 308.097961 C 851.044983 306.402008 851.193604 304.223022 850.804443 302.428528 C 850.139099 299.360901 848.310364 296.489105 847.957336 293.421478 C 847.104553 286.012939 846.821594 278.538879 846.247192 270.684875 C 846.226257 269.186218 846.26709 268.093964 846.514465 266.748108 C 847.142212 265.000336 847.563354 263.506104 848.074219 261.618164 C 847.811218 257.820679 847.458557 254.416931 847.099792 250.553619 C 846.834473 242.430099 846.575317 234.766144 846.26001 226.757019 C 846.23291 225.948013 846.261902 225.484161 846.397034 224.656815 C 847.673828 221.24202 848.560425 218.040649 850.076355 215.17186 C 852.904541 209.819595 853.084045 196.368973 850.060547 192.512726 C 844.882141 185.90802 848.109009 175.35321 856.021545 173.015015 C 856.021545 173.015015 856.083313 173.400955 856.005432 173.972504 C 856.268677 177.266251 856.550049 179.997681 856.96936 182.707779 C 857.315063 184.94223 858.713623 187.446136 858.09375 189.316391 C 856.243652 194.899078 858.670776 198.208771 862.929688 201.473175 C 862.601624 272.966614 862.267456 343.99173 861.93335 415.016846 z" stroke-linecap="round" />
</g>
		<g transform="matrix(1 0 0 1 103.75 -209.34)"  >
<path style="stroke: none; stroke-width: 1; stroke-dasharray: none; stroke-linecap: butt; stroke-dashoffset: 0; stroke-linejoin: miter; stroke-miterlimit: 4; fill: rgb(255,0,0); fill-rule: nonzero; opacity: 1;" vector-effect="non-scaling-stroke"  transform=" translate(-800.68, -167.71)" d="M 856.090454 172.796906 C 848.109009 175.35321 844.882141 185.90802 850.060547 192.512726 C 853.084045 196.368973 852.904541 209.819595 850.076355 215.17186 C 848.560425 218.040649 847.673828 221.24202 846.313965 224.193024 C 845.998657 216.449692 846.555359 208.72261 845.627136 201.178238 C 841.81012 170.153473 824.304321 148.908875 796.725403 135.666916 C 788.578125 131.755066 779.61438 129.543808 771.02478 126.5532 C 766.733765 120.41732 760.282593 119.391945 753.482971 118.951729 C 750.728943 118.77343 748.012329 118.018127 745.278687 117.525391 C 745.338135 116.658272 745.397522 115.791153 745.45697 114.924034 C 750.389954 114.924034 755.379089 115.38649 760.24054 114.796593 C 765.305786 114.181946 770.247864 112.552185 775.588867 111.236008 C 805.592224 116.293564 829.460632 130.854156 846.838257 155.516876 C 850.546936 160.780243 853.083069 166.869843 856.090454 172.796906 M 848.916016 167.14212 C 849.274902 167.245239 849.63385 167.348373 849.992737 167.451492 C 849.980103 167.165848 849.967407 166.880219 849.954773 166.594574 C 849.603271 166.680893 849.251831 166.767197 848.916016 167.14212 z" stroke-linecap="round" />
</g>
		<g transform="matrix(1 0 0 1 -42.23 272.43)"  >
<path style="stroke: none; stroke-width: 1; stroke-dasharray: none; stroke-linecap: butt; stroke-dashoffset: 0; stroke-linejoin: miter; stroke-miterlimit: 4; fill: rgb(255,0,0); fill-rule: nonzero; opacity: 1;" vector-effect="non-scaling-stroke"  transform=" translate(-654.7, -649.48)" d="M 684.59375 634.911072 C 686.050903 638.692444 688.232727 642.740967 688.278687 646.81366 C 688.376526 655.4729 682.843201 660.99884 675.830505 665.291687 C 673.562561 666.679993 669.450317 667.694092 673.555298 671.798462 C 653.726135 679.661621 629.306885 667.090637 623.126892 645.779968 C 622.251221 642.760498 621.691528 639.649292 621.129639 635.894165 C 621.802429 631.935547 622.331116 628.663269 622.859802 625.391052 C 623.495361 625.195435 624.130859 624.999756 624.766357 624.804077 C 626.603943 627.714111 628.42395 630.635376 630.28656 633.529358 C 631.212402 634.967957 632.216553 636.356201 633.185242 637.767273 C 634.398865 636.537292 635.612427 635.307251 636.82605 634.077271 C 639.260254 639.068726 640.82843 644.783691 644.284851 648.921204 C 656.500916 663.544495 676.359619 659.431213 682.540649 641.379944 C 683.236389 639.348022 683.751648 637.254272 684.59375 634.911072 z" stroke-linecap="round" />
</g>
		<g transform="matrix(1 0 0 1 -68.05 225.04)"  >
<path style="stroke: none; stroke-width: 1; stroke-dasharray: none; stroke-linecap: butt; stroke-dashoffset: 0; stroke-linejoin: miter; stroke-miterlimit: 4; fill: rgb(255,0,0); fill-rule: nonzero; opacity: 1;" vector-effect="non-scaling-stroke"  transform=" translate(-628.89, -602.09)" d="M 636.843262 633.653015 C 635.612427 635.307251 634.398865 636.537292 633.185242 637.767273 C 632.216553 636.356201 631.212402 634.967957 630.28656 633.529358 C 628.42395 630.635376 626.603943 627.714111 624.766357 624.804077 C 624.130859 624.999756 623.495361 625.195435 622.859802 625.391052 C 622.331116 628.663269 621.802429 631.935547 621.145508 635.58313 C 620.960938 615.276733 620.904602 594.59491 620.951538 573.17627 C 621.068481 572.074585 621.082153 571.709778 621.095886 571.344971 C 624.758179 565.729309 626.835938 565.173584 634.417114 568.316895 C 633.006775 571.91095 634.087769 574.252075 636.626099 576.174438 C 636.704224 595.192566 636.782349 614.210632 636.843262 633.653015 z" stroke-linecap="round" />
</g>
		<g transform="matrix(1 0 0 1 166.38 -68.09)"  >
<path style="stroke: none; stroke-width: 1; stroke-dasharray: none; stroke-linecap: butt; stroke-dashoffset: 0; stroke-linejoin: miter; stroke-miterlimit: 4; fill: rgb(129,62,58); fill-rule: nonzero; opacity: 1;" vector-effect="non-scaling-stroke"  transform=" translate(-863.32, -308.96)" d="M 862.018433 415.293304 C 862.267456 343.99173 862.601624 272.966614 863.084595 201.384705 C 863.438477 200.709854 863.641724 200.588867 863.843262 200.464935 C 864.100769 219.612549 864.547791 238.759857 864.579102 257.907837 C 864.660767 307.895355 864.58197 357.88324 864.480774 407.870819 C 864.474487 410.972412 863.72113 414.07254 863.107239 417.452881 C 862.633911 417.011536 862.368713 416.290649 862.018433 415.293304 z" stroke-linecap="round" />
</g>
		<g transform="matrix(1 0 0 1 162.95 -189.51)"  >
<path style="stroke: none; stroke-width: 1; stroke-dasharray: none; stroke-linecap: butt; stroke-dashoffset: 0; stroke-linejoin: miter; stroke-miterlimit: 4; fill: rgb(255,0,0); fill-rule: nonzero; opacity: 1;" vector-effect="non-scaling-stroke"  transform=" translate(-859.88, -187.54)" d="M 863.756165 200.034195 C 863.641724 200.588867 863.438477 200.709854 863.078491 200.916382 C 858.670776 198.208771 856.243652 194.899078 858.09375 189.316391 C 858.713623 187.446136 857.315063 184.94223 856.96936 182.707779 C 856.550049 179.997681 856.268677 177.266251 856.012207 174.167816 C 858.620911 182.395508 861.14502 190.999481 863.756165 200.034195 z" stroke-linecap="round" />
</g>
		<g transform="matrix(1 0 0 1 -61.62 195.2)"  >
<path style="stroke: none; stroke-width: 1; stroke-dasharray: none; stroke-linecap: butt; stroke-dashoffset: 0; stroke-linejoin: miter; stroke-miterlimit: 4; fill: rgb(255,0,0); fill-rule: nonzero; opacity: 1;" vector-effect="non-scaling-stroke"  transform=" translate(-635.31, -572.25)" d="M 636.747314 575.905273 C 634.087769 574.252075 633.006775 571.91095 634.673584 568.586853 C 635.510864 570.777161 636.189636 573.206665 636.747314 575.905273 z" stroke-linecap="round" />
</g>
		<g transform="matrix(1 0 0 1 -52.41 138.95)"  >
<path style="stroke: none; stroke-width: 1; stroke-dasharray: none; stroke-linecap: butt; stroke-dashoffset: 0; stroke-linejoin: miter; stroke-miterlimit: 4; fill: rgb(255,0,0); fill-rule: nonzero; opacity: 1;" vector-effect="non-scaling-stroke"  transform=" translate(-644.53, -516)" d="M 644.091858 507.489502 C 644.404297 512.698364 644.68988 518.370422 644.964111 524.506287 C 644.65686 519.297607 644.360962 513.625122 644.091858 507.489502 z" stroke-linecap="round" />
</g>
		<g transform="matrix(1 0 0 1 -21.86 294.47)"  >
<path style="stroke: none; stroke-width: 1; stroke-dasharray: none; stroke-linecap: butt; stroke-dashoffset: 0; stroke-linejoin: miter; stroke-miterlimit: 4; fill: rgb(255,0,0); fill-rule: nonzero; opacity: 1;" vector-effect="non-scaling-stroke"  transform=" translate(-675.08, -671.52)" d="M 674.288269 671.906799 C 674.563416 671.634583 675.121399 671.367859 675.87085 671.137085 C 675.565247 671.419434 675.068115 671.665894 674.288269 671.906799 z" stroke-linecap="round" />
</g>
		<g transform="matrix(1 0 0 1 -51.02 149.13)"  >
<path style="stroke: none; stroke-width: 1; stroke-dasharray: none; stroke-linecap: butt; stroke-dashoffset: 0; stroke-linejoin: miter; stroke-miterlimit: 4; fill: rgb(255,0,0); fill-rule: nonzero; opacity: 1;" vector-effect="non-scaling-stroke"  transform=" translate(-645.92, -526.18)" d="M 645.091797 525.353088 C 645.540833 525.627197 646.068604 526.190002 646.747559 527.007202 C 646.322693 526.721619 645.746582 526.181702 645.091797 525.353088 z" stroke-linecap="round" />
</g>
		<g transform="matrix(1 0 0 1 39.07 151.59)"  >
<path style="stroke: none; stroke-width: 1; stroke-dasharray: none; stroke-linecap: butt; stroke-dashoffset: 0; stroke-linejoin: miter; stroke-miterlimit: 4; fill: rgb(255,0,0); fill-rule: nonzero; opacity: 1;" vector-effect="non-scaling-stroke"  transform=" translate(-736.01, -528.64)" d="M 735.288086 529.170166 C 735.545715 528.843689 736.036743 528.521484 736.730835 528.113525 C 736.463196 528.410034 735.992371 528.792297 735.288086 529.170166 z" stroke-linecap="round" />
</g>
		<g transform="matrix(1 0 0 1 -75.93 195.05)"  >
<path style="stroke: none; stroke-width: 1; stroke-dasharray: none; stroke-linecap: butt; stroke-dashoffset: 0; stroke-linejoin: miter; stroke-miterlimit: 4; fill: rgb(255,0,0); fill-rule: nonzero; opacity: 1;" vector-effect="non-scaling-stroke"  transform=" translate(-621.01, -572.1)" d="M 621.00061 571.489868 C 621.082153 571.709778 621.068481 572.074585 621.021973 572.710938 C 620.961243 572.533264 620.933289 572.083984 621.00061 571.489868 z" stroke-linecap="round" />
</g>
		<g transform="matrix(1 0 0 1 -11.95 254.95)"  >
<path style="stroke: none; stroke-width: 1; stroke-dasharray: none; stroke-linecap: butt; stroke-dashoffset: 0; stroke-linejoin: miter; stroke-miterlimit: 4; fill: rgb(255,0,0); fill-rule: nonzero; opacity: 1;" vector-effect="non-scaling-stroke"  transform=" translate(-684.99, -632)" d="M 684.962341 631.326172 C 685.046387 631.56604 685.041016 631.972534 685.012512 632.682129 C 684.9505 632.487732 684.911743 631.990295 684.962341 631.326172 z" stroke-linecap="round" />
</g>
		<g transform="matrix(1 0 0 1 -49.55 150.56)"  >
<path style="stroke: none; stroke-width: 1; stroke-dasharray: none; stroke-linecap: butt; stroke-dashoffset: 0; stroke-linejoin: miter; stroke-miterlimit: 4; fill: rgb(255,0,0); fill-rule: nonzero; opacity: 1;" vector-effect="non-scaling-stroke"  transform=" translate(-647.39, -527.61)" d="M 646.975586 527.264343 C 647.136841 527.249573 647.378662 527.50177 647.794739 527.950684 C 647.664734 527.942017 647.360474 527.736633 646.975586 527.264343 z" stroke-linecap="round" />
</g>
		<g transform="matrix(1 0 0 1 -7.28 -178.95)"  >
<path style="stroke: none; stroke-width: 1; stroke-dasharray: none; stroke-linecap: butt; stroke-dashoffset: 0; stroke-linejoin: miter; stroke-miterlimit: 4; fill: rgb(255,255,255); fill-rule: nonzero; opacity: 1;" vector-effect="non-scaling-stroke"  transform=" translate(-689.66, -198.1)" d="M 770.55481 126.576981 C 779.61438 129.543808 788.578125 131.755066 796.725403 135.666916 C 824.304321 148.908875 841.81012 170.153473 845.627136 201.178238 C 846.555359 208.72261 845.998657 216.449692 846.207764 224.556549 C 846.261902 225.484161 846.23291 225.948013 846.182007 227.211121 C 846.195251 237.974701 846.230469 247.939011 846.219116 258.266479 C 846.209839 259.114868 846.247192 259.600067 846.211731 260.512024 C 846.19519 262.959717 846.251587 264.980682 846.307922 267.001678 C 846.26709 268.093964 846.226257 269.186218 846.171021 271.140442 C 846.109741 279.472198 846.140442 286.943726 845.978516 294.411072 C 845.911682 297.491669 845.430969 300.563263 844.709412 303.677216 C 842.025574 304.29364 839.772339 304.877625 837.515869 305.449005 C 821.439575 309.519836 805.15271 311.411804 788.599915 309.643066 C 767.834778 307.424286 748.110901 300.863556 728.415588 294.435394 C 703.380859 286.264648 678.52948 277.850769 652.351685 273.513336 C 622.075134 268.496765 592.143127 269.193573 562.131409 274.606201 C 561.631226 274.728394 561.130981 274.850586 559.977417 275.181122 C 558.904236 275.282928 558.484436 275.176422 558.064575 275.069916 C 558.113403 261.920197 558.162781 248.770493 558.210449 235.620789 C 558.215881 234.121719 558.150146 232.619522 558.224976 231.124161 C 558.401611 227.594696 556.119324 225.227051 553.302856 225.523117 C 551.428101 225.7202 549.518372 228.654297 548.287598 230.752426 C 547.553467 232.003891 548.075195 234.007721 548.07782 235.673264 C 548.097595 248.165665 548.015198 260.659973 548.226318 273.149261 C 548.289062 276.859528 547.109314 278.617828 543.34259 279.119568 C 540.137573 279.546478 537.026062 280.675659 533.055176 281.706512 C 533.055176 279.270111 533.055542 277.497894 533.055176 275.725677 C 533.05072 254.065262 532.947021 232.404282 533.068359 210.744568 C 533.200623 187.132019 542.872559 167.65509 559.428589 151.286057 C 572.383484 138.477463 588.290039 131.28775 605.795959 127.340935 C 609.318176 126.546814 613.057434 126.508499 616.698914 126.485283 C 632.526123 126.384369 648.355408 126.531601 664.181519 126.361015 C 674.066101 126.254471 676.858887 123.214851 676.907959 113.463387 C 676.93396 108.300758 676.76947 103.120285 677.141724 97.980515 C 677.619568 91.384758 682.199768 86.521103 687.855469 85.988243 C 694.880188 85.326401 700.490906 88.361794 701.874939 95.1735 C 703.276733 102.072342 703.338074 109.274857 703.630066 116.359055 C 703.918213 123.34861 706.492737 126.21344 713.602783 126.270752 C 732.42981 126.422516 751.257507 126.496086 770.55481 126.576981 z" stroke-linecap="round" />
</g>
		<g transform="matrix(1 0 0 1 -7.19 -33.76)"  >
<path style="stroke: none; stroke-width: 1; stroke-dasharray: none; stroke-linecap: butt; stroke-dashoffset: 0; stroke-linejoin: miter; stroke-miterlimit: 4; fill: rgb(255,255,255); fill-rule: nonzero; opacity: 1;" vector-effect="non-scaling-stroke"  transform=" translate(-689.75, -343.29)" d="M 846.306091 353.909729 C 846.277771 354.398895 846.24939 354.888031 846.203735 356.114319 C 846.236633 357.861298 846.286865 358.871185 846.337036 359.881073 C 846.297485 360.690765 846.257935 361.500458 846.202393 363.054962 C 846.237976 364.498016 846.28949 365.196259 846.341003 365.894501 C 846.292542 366.689056 846.24408 367.483643 846.188538 368.977051 C 846.226257 370.088531 846.271118 370.50119 846.31604 370.913849 C 846.268982 376.330902 846.221924 381.747925 846.151489 387.949341 C 846.117737 389.161743 846.107483 389.589844 846.097168 390.017914 C 846.097168 390.017914 845.943787 390.209076 845.862427 390.34375 C 845.781067 390.478394 845.714905 390.717621 845.714905 390.717621 C 845.714905 390.717621 845.346863 390.891388 844.873413 391.058899 C 844.075623 391.479584 843.751404 391.732819 843.427124 391.986023 C 835.583984 394.03302 827.779358 396.244324 819.889587 398.092377 C 804.123596 401.785248 788.17749 402.354462 772.428162 398.563934 C 763.153198 396.331665 753.926453 393.328003 745.205994 389.476013 C 723.955811 380.089417 701.94928 376.687988 679.035217 379.779999 C 663.26709 381.907776 648.747681 388.186798 634.201904 394.359497 C 615.542236 402.277924 596.176941 406.137177 575.861755 402.500336 C 570.195312 401.485931 564.588379 400.13913 558.311157 398.696777 C 556.788269 398.3237 555.908386 398.198669 555.028442 398.073669 C 554.541016 397.769897 554.05365 397.466064 553.281982 397.120178 C 549.570251 395.984955 546.1427 394.891876 542.412048 393.860382 C 542.108948 393.921967 542.163696 393.875183 542.163696 393.875183 C 539.383667 392.749054 536.603638 391.622894 533.578003 389.924194 C 533.268066 358.28183 533.203796 327.212036 533.139526 296.142212 C 537.767822 294.529327 542.396118 292.916412 548.056946 290.943665 C 548.056946 294.137482 548.054993 296.07254 548.05719 298.007568 C 548.083679 321.339508 548.089783 344.671478 548.165649 368.003265 C 548.174561 370.748627 547.736206 373.872894 551.731262 374.65686 C 556.14502 375.52301 558.023682 373.947174 558.021912 369.037384 C 558.012939 344.038818 558.080872 319.039337 557.859131 294.042542 C 557.822205 289.883484 559.10083 287.776123 563.924744 287.231018 C 599.826782 280.521545 634.88147 280.989502 669.36438 290.473633 C 693.807678 297.196442 717.67511 305.992676 742.046326 313.005859 C 755.539551 316.888763 769.540344 319.007812 783.495117 322.05835 C 784.244568 322.171448 784.81134 322.148193 785.711609 322.209259 C 788.079102 322.279449 790.113098 322.26532 792.530518 322.365509 C 796.248718 322.576843 799.583435 322.673859 803.388062 322.838318 C 812.245667 322.033325 820.63324 321.160889 829.420532 320.352448 C 835.266907 319.379669 840.713623 318.342926 846.160278 317.306213 C 846.190552 318.553375 846.220886 319.800537 846.245972 321.851288 C 846.278442 323.110748 846.316162 323.566681 846.353882 324.022583 C 846.301086 326.098053 846.248291 328.173492 846.179321 331.141602 C 846.210815 339.32605 846.258423 346.617889 846.306091 353.909729 z" stroke-linecap="round" />
</g>
		<g transform="matrix(1 0 0 1 -7.62 64.27)"  >
<path style="stroke: none; stroke-width: 1; stroke-dasharray: none; stroke-linecap: butt; stroke-dashoffset: 0; stroke-linejoin: miter; stroke-miterlimit: 4; fill: rgb(255,255,255); fill-rule: nonzero; opacity: 1;" vector-effect="non-scaling-stroke"  transform=" translate(-689.32, -441.32)" d="M 614.728271 490.827148 C 596.377686 489.533722 580.075378 482.976044 565.688721 471.606598 C 562.830811 469.348083 560.223145 466.772919 557.207764 464.175354 C 547.847473 453.270416 540.367737 441.406555 535.668945 428.268097 C 533.201782 421.369507 533.613708 413.441223 532.55481 404.543854 C 537.980469 406.391144 541.615845 407.628906 545.624146 408.806641 C 560.947937 412.568146 575.863525 415.930237 591.528381 416.036133 C 612.002502 416.17453 631.046387 411.067627 649.142151 402.298309 C 666.243347 394.010956 684.196594 390.867981 702.843567 392.064636 C 716.46344 392.93869 729.557434 396.532715 741.948792 402.716003 C 753.308167 408.384338 765.683594 410.909546 778.178345 412.926605 C 800.117676 416.468262 821.142029 412.143616 842.01355 406.068024 C 843.089417 405.754852 844.220398 405.631378 845.916809 405.306335 C 846.663635 416.120483 844.816467 426.219666 840.733459 435.678497 C 828.102173 464.940399 806.630005 483.753265 774.845154 489.883331 C 773.867615 490.071869 772.905701 490.341888 771.066162 490.403748 C 769.36853 490.1633 768.541199 490.031525 767.713867 490.031281 C 718.155212 490.016754 668.596558 490.006195 619.037903 490.042664 C 617.601196 490.043732 616.164795 490.554199 614.728271 490.827148 z" stroke-linecap="round" />
</g>
		<g transform="matrix(1 0 0 1 6.34 -80.85)"  >
<path style="stroke: none; stroke-width: 1; stroke-dasharray: none; stroke-linecap: butt; stroke-dashoffset: 0; stroke-linejoin: miter; stroke-miterlimit: 4; fill: rgb(255,0,0); fill-rule: nonzero; opacity: 1;" vector-effect="non-scaling-stroke"  transform=" translate(-703.27, -296.2)" d="M 792.147034 322.25119 C 790.113098 322.26532 788.079102 322.279449 785.366516 322.174072 C 784.22937 322.010376 783.770874 321.966187 783.312378 321.921997 C 769.540344 319.007812 755.539551 316.888763 742.046326 313.005859 C 717.67511 305.992676 693.807678 297.196442 669.36438 290.473633 C 634.88147 280.989502 599.826782 280.521545 564.306274 287.04425 C 563.31311 283.071625 562.696533 279.144043 562.105713 274.911316 C 592.143127 269.193573 622.075134 268.496765 652.351685 273.513336 C 678.52948 277.850769 703.380859 286.264648 728.415588 294.435394 C 748.110901 300.863556 767.834778 307.424286 788.599915 309.643066 C 805.15271 311.411804 821.439575 309.519836 837.515869 305.449005 C 839.772339 304.877625 842.025574 304.29364 844.440796 303.916626 C 841.40509 307.732605 838.208923 311.347473 834.651367 315.023346 C 832.858704 315.381226 831.42749 315.678101 830.115906 315.706604 C 830.624084 314.272949 831.012573 313.107727 831.683167 311.096222 C 825.50592 311.096222 820.082764 310.985596 814.665649 311.118774 C 802.599426 311.415375 790.536194 311.835205 778.47168 312.201782 C 775.426086 312.294312 772.130371 311.707611 769.521851 316.179688 C 777.409119 318.296234 784.778076 320.273712 792.147034 322.25119 z" stroke-linecap="round" />
</g>
		<g transform="matrix(1 0 0 1 -164.3 -33.93)"  >
<path style="stroke: none; stroke-width: 1; stroke-dasharray: none; stroke-linecap: butt; stroke-dashoffset: 0; stroke-linejoin: miter; stroke-miterlimit: 4; fill: rgb(129,62,58); fill-rule: nonzero; opacity: 1;" vector-effect="non-scaling-stroke"  transform=" translate(-532.64, -343.12)" d="M 532.987793 296.512177 C 533.203796 327.212036 533.268066 358.28183 533.296936 389.736572 C 532.838562 387.528534 532.057129 384.936859 532.048218 382.342529 C 531.958374 356.144989 531.974121 329.946991 532.032532 303.749298 C 532.037659 301.459656 532.556091 299.171173 532.987793 296.512177 z" stroke-linecap="round" />
</g>
		<g transform="matrix(1 0 0 1 -156.88 21.89)"  >
<path style="stroke: none; stroke-width: 1; stroke-dasharray: none; stroke-linecap: butt; stroke-dashoffset: 0; stroke-linejoin: miter; stroke-miterlimit: 4; fill: rgb(255,0,0); fill-rule: nonzero; opacity: 1;" vector-effect="non-scaling-stroke"  transform=" translate(-540.05, -398.95)" d="M 542.115112 393.886719 C 542.049255 395.828064 542.283386 397.882141 541.809021 399.756958 C 541.422791 401.283875 540.188416 402.596252 539.330017 404.003723 C 538.849915 402.336334 537.685547 400.490234 538.062622 399.046661 C 538.536438 397.23233 540.272034 395.747559 541.813416 393.997864 C 542.163696 393.875183 542.108948 393.921967 542.115112 393.886719 z" stroke-linecap="round" />
</g>
		<g transform="matrix(1 0 0 1 49.73 -252.55)"  >
<path style="stroke: none; stroke-width: 1; stroke-dasharray: none; stroke-linecap: butt; stroke-dashoffset: 0; stroke-linejoin: miter; stroke-miterlimit: 4; fill: rgb(255,0,0); fill-rule: nonzero; opacity: 1;" vector-effect="non-scaling-stroke"  transform=" translate(-746.67, -124.5)" d="M 746.148438 124.837662 C 746.321106 124.594116 746.622864 124.375511 746.924622 124.156906 C 747.015259 124.351219 747.105896 124.545532 747.196594 124.739838 C 746.890259 124.780762 746.583862 124.821686 746.148438 124.837662 z" stroke-linecap="round" />
</g>
		<g transform="matrix(1 0 0 1 -178.93 33.38)"  >
<path style="stroke: none; stroke-width: 1; stroke-dasharray: none; stroke-linecap: butt; stroke-dashoffset: 0; stroke-linejoin: miter; stroke-miterlimit: 4; fill: rgb(255,0,0); fill-rule: nonzero; opacity: 1;" vector-effect="non-scaling-stroke"  transform=" translate(-518, -410.43)" d="M 517.843872 410.456909 C 517.963196 410.404114 518.063049 410.405884 518.162842 410.407654 C 518.050049 410.442261 517.937195 410.476868 517.843872 410.456909 z" stroke-linecap="round" />
</g>
		<g transform="matrix(1 0 0 1 -138.03 -101.76)"  >
<path style="stroke: none; stroke-width: 1; stroke-dasharray: none; stroke-linecap: butt; stroke-dashoffset: 0; stroke-linejoin: miter; stroke-miterlimit: 4; fill: rgb(255,0,0); fill-rule: nonzero; opacity: 1;" vector-effect="non-scaling-stroke"  transform=" translate(-558.91, -275.3)" d="M 558.161438 275.202637 C 558.484436 275.176422 558.904236 275.282928 559.651855 275.392975 C 559.405823 275.376099 558.832092 275.355713 558.161438 275.202637 z" stroke-linecap="round" />
</g>
		<g transform="matrix(1 0 0 1 -4.01 113.44)"  >
<path style="stroke: none; stroke-width: 1; stroke-dasharray: none; stroke-linecap: butt; stroke-dashoffset: 0; stroke-linejoin: miter; stroke-miterlimit: 4; fill: rgb(128,0,0); fill-rule: nonzero; opacity: 1;" vector-effect="non-scaling-stroke"  transform=" translate(-692.93, -490.49)" d="M 615.214478 490.862885 C 616.164795 490.554199 617.601196 490.043732 619.037903 490.042664 C 668.596558 490.006195 718.155212 490.016754 767.713867 490.031281 C 768.541199 490.031525 769.36853 490.1633 770.642334 490.421021 C 756.77063 490.726929 742.452454 490.935211 728.134155 490.946625 C 690.656372 490.976501 653.178528 490.92041 615.214478 490.862885 z" stroke-linecap="round" />
</g>
		<g transform="matrix(1 0 0 1 -140.32 21.39)"  >
<path style="stroke: none; stroke-width: 1; stroke-dasharray: none; stroke-linecap: butt; stroke-dashoffset: 0; stroke-linejoin: miter; stroke-miterlimit: 4; fill: rgb(255,0,0); fill-rule: nonzero; opacity: 1;" vector-effect="non-scaling-stroke"  transform=" translate(-556.62, -398.44)" d="M 555.331299 398.185699 C 555.908386 398.198669 556.788269 398.3237 557.898804 398.698608 C 557.297607 398.731598 556.46582 398.514648 555.331299 398.185699 z" stroke-linecap="round" />
</g>
		<g transform="matrix(1 0 0 1 149.66 -7)"  >
<path style="stroke: none; stroke-width: 1; stroke-dasharray: none; stroke-linecap: butt; stroke-dashoffset: 0; stroke-linejoin: miter; stroke-miterlimit: 4; fill: rgb(255,0,0); fill-rule: nonzero; opacity: 1;" vector-effect="non-scaling-stroke"  transform=" translate(-846.59, -370.05)" d="M 846.443359 370.757538 C 846.271118 370.50119 846.226257 370.088531 846.253174 369.370911 C 846.500671 369.251495 846.666443 369.445618 846.939209 369.799896 C 846.899841 370.172058 846.738037 370.388641 846.443359 370.757538 z" stroke-linecap="round" />
</g>
		<g transform="matrix(1 0 0 1 149.24 12.08)"  >
<path style="stroke: none; stroke-width: 1; stroke-dasharray: none; stroke-linecap: butt; stroke-dashoffset: 0; stroke-linejoin: miter; stroke-miterlimit: 4; fill: rgb(255,0,0); fill-rule: nonzero; opacity: 1;" vector-effect="non-scaling-stroke"  transform=" translate(-846.18, -389.13)" d="M 846.152344 389.83075 C 846.107483 389.589844 846.117737 389.161743 846.200195 388.421814 C 846.250732 388.621185 846.229065 389.132416 846.152344 389.83075 z" stroke-linecap="round" />
</g>
		<g transform="matrix(1 0 0 1 148.86 13.52)"  >
<path style="stroke: none; stroke-width: 1; stroke-dasharray: none; stroke-linecap: butt; stroke-dashoffset: 0; stroke-linejoin: miter; stroke-miterlimit: 4; fill: rgb(255,0,0); fill-rule: nonzero; opacity: 1;" vector-effect="non-scaling-stroke"  transform=" translate(-845.8, -390.57)" d="M 845.734985 390.66626 C 845.714905 390.717621 845.781067 390.478394 845.844727 390.464966 C 845.908325 390.451569 845.755066 390.614868 845.734985 390.66626 z" stroke-linecap="round" />
</g>
		<g transform="matrix(1 0 0 1 147.27 14.47)"  >
<path style="stroke: none; stroke-width: 1; stroke-dasharray: none; stroke-linecap: butt; stroke-dashoffset: 0; stroke-linejoin: miter; stroke-miterlimit: 4; fill: rgb(255,0,0); fill-rule: nonzero; opacity: 1;" vector-effect="non-scaling-stroke"  transform=" translate(-844.2, -391.52)" d="M 843.696289 391.849915 C 843.751404 391.732819 844.075623 391.479584 844.712036 391.182831 C 844.671265 391.33078 844.31842 391.522278 843.696289 391.849915 z" stroke-linecap="round" />
</g>
		<g transform="matrix(1 0 0 1 -4.59 133.37)"  >
<path style="stroke: none; stroke-width: 1; stroke-dasharray: none; stroke-linecap: butt; stroke-dashoffset: 0; stroke-linejoin: miter; stroke-miterlimit: 4; fill: rgb(255,255,255); fill-rule: nonzero; opacity: 1;" vector-effect="non-scaling-stroke"  transform=" translate(-692.35, -510.42)" d="M 719.000122 505.881775 C 721.204956 506.149139 723.895264 505.727905 723.805542 510.037659 C 723.825989 512.177734 723.837158 513.543213 723.848328 514.908691 C 723.848328 514.908691 723.388794 514.975098 722.707153 514.941772 C 701.701111 514.811951 681.37677 514.715515 661.052368 514.61908 C 661.003784 513.943909 660.9552 513.268677 660.913818 511.858551 C 660.89856 509.768127 660.87616 508.412628 660.85376 507.057129 C 664.611084 506.714142 668.368469 506.371155 672.900146 506.019531 C 674.103882 505.97464 674.533264 505.938354 674.962646 505.9021 C 688.664551 505.937744 702.366394 505.973358 716.865967 505.999847 C 718.109192 505.954376 718.554626 505.918091 719.000122 505.881775 z" stroke-linecap="round" />
</g>
		<g transform="matrix(1 0 0 1 -4.33 157.37)"  >
<path style="stroke: none; stroke-width: 1; stroke-dasharray: none; stroke-linecap: butt; stroke-dashoffset: 0; stroke-linejoin: miter; stroke-miterlimit: 4; fill: rgb(255,255,255); fill-rule: nonzero; opacity: 1;" vector-effect="non-scaling-stroke"  transform=" translate(-692.61, -534.42)" d="M 708.55127 530.693665 C 709.227051 538.983093 709.227112 538.968323 701.265564 538.931763 C 694.113281 538.898865 686.952637 539.074463 679.816223 538.731689 C 678.550049 538.670959 676.415222 536.537048 676.396179 535.333191 C 676.366577 533.465332 677.780273 529.955627 678.633606 529.939941 C 688.539185 529.757751 698.454529 530.101562 708.55127 530.693665 z" stroke-linecap="round" />
</g>
		<g transform="matrix(1 0 0 1 -4.59 183.4)"  >
<path style="stroke: none; stroke-width: 1; stroke-dasharray: none; stroke-linecap: butt; stroke-dashoffset: 0; stroke-linejoin: miter; stroke-miterlimit: 4; fill: rgb(255,255,255); fill-opacity: 0; fill-rule: nonzero; opacity: 1;" vector-effect="non-scaling-stroke"  transform=" translate(-692.35, -560.45)" d="M 690.341675 554.359558 C 693.107117 554.747986 697.124512 554.634216 697.444336 555.666321 C 698.374817 558.668884 699.115784 563.820923 697.552429 565.014526 C 695.220215 566.795166 690.493225 566.931458 687.461243 565.857849 C 684.761536 564.901978 686.91272 555.694641 690.341675 554.359558 z" stroke-linecap="round" />
</g>
		<g transform="matrix(1 0 0 1 -2.57 140.11)"  >
<path style="stroke: none; stroke-width: 1; stroke-dasharray: none; stroke-linecap: butt; stroke-dashoffset: 0; stroke-linejoin: miter; stroke-miterlimit: 4; fill: rgb(255,0,0); fill-rule: nonzero; opacity: 1;" vector-effect="non-scaling-stroke"  transform=" translate(-694.37, -517.16)" d="M 707.94696 516.113098 C 705.64447 516.85498 703.319092 518.285645 701.043884 518.209717 C 694.221924 517.982117 687.419678 517.165894 680.792725 516.329224 C 689.966125 516.090393 698.956543 516.101746 707.94696 516.113098 z" stroke-linecap="round" />
</g>
		<g transform="matrix(1 0 0 1 -4.99 138.38)"  >
<path style="stroke: none; stroke-width: 1; stroke-dasharray: none; stroke-linecap: butt; stroke-dashoffset: 0; stroke-linejoin: miter; stroke-miterlimit: 4; fill: rgb(129,62,58); fill-rule: nonzero; opacity: 1;" vector-effect="non-scaling-stroke"  transform=" translate(-691.95, -515.43)" d="M 708.416077 516.092773 C 698.956543 516.101746 689.966125 516.090393 680.512451 516.094727 C 673.963196 515.738953 667.877197 515.367432 661.421814 514.807495 C 681.37677 514.715515 701.701111 514.811951 722.481384 514.99585 C 718.253235 515.412964 713.569214 515.742737 708.416077 516.092773 z" stroke-linecap="round" />
</g>
		<g transform="matrix(1 0 0 1 28.27 135.61)"  >
<path style="stroke: none; stroke-width: 1; stroke-dasharray: none; stroke-linecap: butt; stroke-dashoffset: 0; stroke-linejoin: miter; stroke-miterlimit: 4; fill: rgb(255,0,0); fill-rule: nonzero; opacity: 1;" vector-effect="non-scaling-stroke"  transform=" translate(-725.21, -512.67)" d="M 724.117615 514.92334 C 723.837158 513.543213 723.825989 512.177734 723.886047 510.408203 C 727.382202 512.414246 727.447632 513.165527 724.117615 514.92334 z" stroke-linecap="round" />
</g>
		<g transform="matrix(1 0 0 1 -11.47 285.32)"  >
<path style="stroke: none; stroke-width: 1; stroke-dasharray: none; stroke-linecap: butt; stroke-dashoffset: 0; stroke-linejoin: miter; stroke-miterlimit: 4; fill: rgb(255,0,0); fill-rule: nonzero; opacity: 1;" vector-effect="non-scaling-stroke"  transform=" translate(-685.47, -662.37)" d="M 685.285889 662.743164 C 685.221924 662.47821 685.257141 662.242432 685.292297 662.006592 C 685.426025 662.045349 685.559814 662.084106 685.693542 662.122864 C 685.590698 662.339355 685.487854 662.555847 685.285889 662.743164 z" stroke-linecap="round" />
</g>
		<g transform="matrix(1 0 0 1 -36.13 132.39)"  >
<path style="stroke: none; stroke-width: 1; stroke-dasharray: none; stroke-linecap: butt; stroke-dashoffset: 0; stroke-linejoin: miter; stroke-miterlimit: 4; fill: rgb(255,0,0); fill-rule: nonzero; opacity: 1;" vector-effect="non-scaling-stroke"  transform=" translate(-660.8, -509.44)" d="M 660.754028 507.353485 C 660.87616 508.412628 660.89856 509.768127 660.855591 511.525024 C 660.744934 510.500916 660.699646 509.075348 660.754028 507.353485 z" stroke-linecap="round" />
</g>
		<g transform="matrix(1 0 0 1 21.17 128.8)"  >
<path style="stroke: none; stroke-width: 1; stroke-dasharray: none; stroke-linecap: butt; stroke-dashoffset: 0; stroke-linejoin: miter; stroke-miterlimit: 4; fill: rgb(255,0,0); fill-rule: nonzero; opacity: 1;" vector-effect="non-scaling-stroke"  transform=" translate(-718.1, -505.85)" d="M 718.875977 505.762756 C 718.554626 505.918091 718.109192 505.954376 717.331299 505.939697 C 717.583252 505.807007 718.167542 505.725342 718.875977 505.762756 z" stroke-linecap="round" />
</g>
		<g transform="matrix(1 0 0 1 -22.87 128.86)"  >
<path style="stroke: none; stroke-width: 1; stroke-dasharray: none; stroke-linecap: butt; stroke-dashoffset: 0; stroke-linejoin: miter; stroke-miterlimit: 4; fill: rgb(255,0,0); fill-rule: nonzero; opacity: 1;" vector-effect="non-scaling-stroke"  transform=" translate(-674.06, -505.91)" d="M 674.772095 505.857849 C 674.533264 505.938354 674.103882 505.97464 673.354736 505.957336 C 673.550537 505.873718 674.06604 505.843689 674.772095 505.857849 z" stroke-linecap="round" />
</g>
		<g transform="matrix(1 0 0 1 146.08 -83.42)"  >
<path style="stroke: none; stroke-width: 1; stroke-dasharray: none; stroke-linecap: butt; stroke-dashoffset: 0; stroke-linejoin: miter; stroke-miterlimit: 4; fill: rgb(255,0,0); fill-rule: nonzero; opacity: 1;" vector-effect="non-scaling-stroke"  transform=" translate(-843.01, -293.63)" d="M 835.012756 314.962341 C 838.208923 311.347473 841.40509 307.732605 844.869873 303.878357 C 845.430969 300.563263 845.911682 297.491669 845.978516 294.411072 C 846.140442 286.943726 846.109741 279.472198 846.232788 271.546783 C 846.821594 278.538879 847.104553 286.012939 847.957336 293.421478 C 848.310364 296.489105 850.139099 299.360901 850.804443 302.428528 C 851.193604 304.223022 851.044983 306.402008 850.36499 308.097961 C 849.334351 310.668396 847.630493 312.968903 845.716553 315.707336 C 841.81781 315.67453 838.415283 315.31842 835.012756 314.962341 z" stroke-linecap="round" />
</g>
		<g transform="matrix(1 0 0 1 140.67 -59.54)"  >
<path style="stroke: none; stroke-width: 1; stroke-dasharray: none; stroke-linecap: butt; stroke-dashoffset: 0; stroke-linejoin: miter; stroke-miterlimit: 4; fill: rgb(255,0,0); fill-rule: nonzero; opacity: 1;" vector-effect="non-scaling-stroke"  transform=" translate(-837.61, -317.51)" d="M 834.651367 315.023315 C 838.415283 315.31842 841.81781 315.67453 845.613831 316.017761 C 846.044189 316.293732 846.080383 316.582642 846.138184 317.088928 C 840.713623 318.342926 835.266907 319.379669 829.417603 319.996216 C 829.006775 318.386169 828.998535 317.196259 829.241699 315.998627 C 829.660828 315.985596 829.828491 315.980286 829.996216 315.975006 C 831.42749 315.678101 832.858704 315.381226 834.651367 315.023315 z" stroke-linecap="round" />
</g>
		<g transform="matrix(1 0 0 1 149.71 -134.32)"  >
<path style="stroke: none; stroke-width: 1; stroke-dasharray: none; stroke-linecap: butt; stroke-dashoffset: 0; stroke-linejoin: miter; stroke-miterlimit: 4; fill: rgb(255,0,0); fill-rule: nonzero; opacity: 1;" vector-effect="non-scaling-stroke"  transform=" translate(-846.65, -242.73)" d="M 846.265747 257.90332 C 846.230469 247.939011 846.195251 237.974701 846.238037 227.556305 C 846.575317 234.766144 846.834473 242.430099 847.081421 250.949829 C 846.801331 253.838196 846.533508 255.870758 846.265747 257.90332 z" stroke-linecap="round" />
</g>
		<g transform="matrix(1 0 0 1 149.39 -34.5)"  >
<path style="stroke: none; stroke-width: 1; stroke-dasharray: none; stroke-linecap: butt; stroke-dashoffset: 0; stroke-linejoin: miter; stroke-miterlimit: 4; fill: rgb(255,0,0); fill-rule: nonzero; opacity: 1;" vector-effect="non-scaling-stroke"  transform=" translate(-846.33, -342.55)" d="M 846.412354 353.521332 C 846.258423 346.617889 846.210815 339.32605 846.244019 331.583374 C 846.389465 338.465973 846.454102 345.799469 846.412354 353.521332 z" stroke-linecap="round" />
</g>
		<g transform="matrix(1 0 0 1 150.12 -120.63)"  >
<path style="stroke: none; stroke-width: 1; stroke-dasharray: none; stroke-linecap: butt; stroke-dashoffset: 0; stroke-linejoin: miter; stroke-miterlimit: 4; fill: rgb(255,0,0); fill-rule: nonzero; opacity: 1;" vector-effect="non-scaling-stroke"  transform=" translate(-847.06, -256.42)" d="M 846.219055 258.266479 C 846.533508 255.870758 846.801331 253.838196 847.087524 251.409409 C 847.458557 254.416931 847.811218 257.820679 847.90271 261.426453 C 847.189148 261.114044 846.736877 260.59967 846.284668 260.085266 C 846.247192 259.600067 846.209839 259.114868 846.219055 258.266479 z" stroke-linecap="round" />
</g>
		<g transform="matrix(1 0 0 1 150.07 -113.42)"  >
<path style="stroke: none; stroke-width: 1; stroke-dasharray: none; stroke-linecap: butt; stroke-dashoffset: 0; stroke-linejoin: miter; stroke-miterlimit: 4; fill: rgb(255,0,0); fill-rule: nonzero; opacity: 1;" vector-effect="non-scaling-stroke"  transform=" translate(-847.01, -263.63)" d="M 846.211792 260.511993 C 846.736877 260.59967 847.189148 261.114044 847.812988 261.82019 C 847.563354 263.506104 847.142212 265.000336 846.514465 266.748108 C 846.251587 264.980682 846.19519 262.959717 846.211792 260.511993 z" stroke-linecap="round" />
</g>
		<g transform="matrix(1 0 0 1 149.48 -53.92)"  >
<path style="stroke: none; stroke-width: 1; stroke-dasharray: none; stroke-linecap: butt; stroke-dashoffset: 0; stroke-linejoin: miter; stroke-miterlimit: 4; fill: rgb(255,0,0); fill-rule: nonzero; opacity: 1;" vector-effect="non-scaling-stroke"  transform=" translate(-846.42, -323.13)" d="M 846.530334 323.951263 C 846.316162 323.566681 846.278442 323.110748 846.301331 322.315857 C 846.476868 322.611237 846.591858 323.245575 846.530334 323.951263 z" stroke-linecap="round" />
</g>
		<g transform="matrix(1 0 0 1 149.4 -19)"  >
<path style="stroke: none; stroke-width: 1; stroke-dasharray: none; stroke-linecap: butt; stroke-dashoffset: 0; stroke-linejoin: miter; stroke-miterlimit: 4; fill: rgb(255,0,0); fill-rule: nonzero; opacity: 1;" vector-effect="non-scaling-stroke"  transform=" translate(-846.34, -358.05)" d="M 846.417114 359.617615 C 846.286865 358.871185 846.236633 357.861298 846.260986 356.47818 C 846.389465 357.188019 846.443298 358.271118 846.417114 359.617615 z" stroke-linecap="round" />
</g>
		<g transform="matrix(1 0 0 1 149.4 -12.49)"  >
<path style="stroke: none; stroke-width: 1; stroke-dasharray: none; stroke-linecap: butt; stroke-dashoffset: 0; stroke-linejoin: miter; stroke-miterlimit: 4; fill: rgb(255,0,0); fill-rule: nonzero; opacity: 1;" vector-effect="non-scaling-stroke"  transform=" translate(-846.33, -364.56)" d="M 846.405884 365.666962 C 846.28949 365.196259 846.237976 364.498016 846.26532 363.456909 C 846.386414 363.88916 846.428589 364.664276 846.405884 365.666962 z" stroke-linecap="round" />
</g>
		<g transform="matrix(1 0 0 1 152.51 -210.03)"  >
<path style="stroke: none; stroke-width: 1; stroke-dasharray: none; stroke-linecap: butt; stroke-dashoffset: 0; stroke-linejoin: miter; stroke-miterlimit: 4; fill: rgb(255,0,0); fill-rule: nonzero; opacity: 1;" vector-effect="non-scaling-stroke"  transform=" translate(-849.45, -167.02)" d="M 848.908203 166.997818 C 849.251831 166.767197 849.603271 166.680893 849.954773 166.594574 C 849.967407 166.880219 849.980103 167.165848 849.992737 167.451492 C 849.63385 167.348373 849.274902 167.245239 848.908203 166.997818 z" stroke-linecap="round" />
</g>
		<g transform="matrix(1 0 0 1 103.66 -60.14)"  >
<path style="stroke: none; stroke-width: 1; stroke-dasharray: none; stroke-linecap: butt; stroke-dashoffset: 0; stroke-linejoin: miter; stroke-miterlimit: 4; fill: rgb(255,0,0); fill-rule: nonzero; opacity: 1;" vector-effect="non-scaling-stroke"  transform=" translate(-800.6, -316.91)" d="M 830.115906 315.706604 C 829.828491 315.980286 829.660828 315.985596 828.88385 316.093628 C 825.536194 317.323608 822.883545 318.945496 820.035522 319.438293 C 817.216675 319.926025 813.361694 320.37262 811.438599 318.903442 C 806.838989 315.389465 802.529297 318.065857 798.184082 317.211487 C 798.044067 317.638092 797.903992 318.064697 797.763916 318.491302 C 799.481995 319.917847 801.200073 321.344391 802.918152 322.770905 C 799.583435 322.673859 796.248718 322.576843 792.530518 322.365509 C 784.778076 320.273712 777.409119 318.296234 769.521851 316.179688 C 772.130371 311.707611 775.426086 312.294312 778.47168 312.201782 C 790.536194 311.835205 802.599426 311.415375 814.665649 311.118774 C 820.082764 310.985596 825.50592 311.096222 831.683167 311.096222 C 831.012573 313.107727 830.624084 314.272949 830.115906 315.706604 z" stroke-linecap="round" />
</g>
		<g transform="matrix(1 0 0 1 116.45 -57.58)"  >
<path style="stroke: none; stroke-width: 1; stroke-dasharray: none; stroke-linecap: butt; stroke-dashoffset: 0; stroke-linejoin: miter; stroke-miterlimit: 4; fill: rgb(255,0,0); fill-rule: nonzero; opacity: 1;" vector-effect="non-scaling-stroke"  transform=" translate(-813.39, -319.47)" d="M 803.388062 322.838318 C 801.200073 321.344391 799.481995 319.917847 797.763916 318.491302 C 797.903992 318.064697 798.044067 317.638092 798.184082 317.211487 C 802.529297 318.065857 806.838989 315.389465 811.438599 318.903442 C 813.361694 320.37262 817.216675 319.926025 820.035522 319.438293 C 822.883545 318.945496 825.536194 317.323608 828.632324 316.101379 C 828.998535 317.196259 829.006775 318.386169 829.017944 319.932251 C 820.63324 321.160889 812.245667 322.033325 803.388062 322.838318 z" stroke-linecap="round" />
</g>
		<g transform="matrix(1 0 0 1 87.33 -54.98)"  >
<path style="stroke: none; stroke-width: 1; stroke-dasharray: none; stroke-linecap: butt; stroke-dashoffset: 0; stroke-linejoin: miter; stroke-miterlimit: 4; fill: rgb(255,0,0); fill-rule: nonzero; opacity: 1;" vector-effect="non-scaling-stroke"  transform=" translate(-784.26, -322.07)" d="M 783.495117 322.05835 C 783.770874 321.966187 784.22937 322.010376 785.032959 322.089783 C 784.81134 322.148193 784.244568 322.171448 783.495117 322.05835 z" stroke-linecap="round" />
</g>
</g>
</g>
</svg>