<svg width="320" height="331" viewBox="0 0 320 331" fill="none" xmlns="http://www.w3.org/2000/svg"><path fill-rule="evenodd" clip-rule="evenodd" d="m8.829 288.671-.049.02a1 1 0 0 0-.391 1.564l.85 1.023c3.34 4.025 10.724 11.209 15.539 15.121.195.158.72.656.926.822.521.42.758.542 1.13.859q.055.047.117.088c.506.328 1.266.859 2.147 1.476 1.03.72 2.227 1.557 3.381 2.323 9.838 6.529 19.996 10.966 31.282 13.665 12.713 3.04 28.762 3.406 43.037.98 12.646-2.149 21.836-5.038 39.852-12.529 11.626-4.833 27.192-9.432 38.456-11.361 26.712-4.574 51.844-1.341 71.924 9.253 4.839 2.553 8.648 4.993 13.555 8.683 10.843 8.155 13.962 9.57 21.094 9.57 4.451 0 7.077-.644 10.613-2.603 9.111-5.047 11.078-14.215 4.823-22.48-3.871-5.114-7.858-7.887-12.643-8.795-2.347-.445-7.097.07-9.493 1.028-1.598.64-1.642.707-1.642 2.539 0 1.836.073 1.947 2.959 4.541 2.654 2.385 3.022 2.596 3.568 2.05 1.181-1.181 4.798-2.574 6.693-2.578 3.946-.008 5.849 3.667 4.544 8.779-.491 1.924-1.646 4.01-2.572 4.873l-.001.001v.001q-.12.11-.233.193l-.035.03c-.503.414-1.594 1.291-2.286 1.681-1.337.753-2.405.974-5.264 1.089-4.878.196-6.786-.538-14.047-5.404-10.506-7.041-17.45-10.782-26.999-14.545-13.133-5.176-25.5-7.461-40.364-7.461-8.951 0-16.613.745-24.991 2.431-13.666 2.75-21.927 5.383-45.231 14.419-23.687 9.184-39.266 12.639-56.986 12.639-22.79 0-42.638-6.817-58.626-20.134-3.064-2.552-8.78-8.398-10.512-10.75l-.202-.275c-1.728-2.347-2.265-3.077-2.86-3.128-.27-.024-.55.092-.959.259l-.057.024z" fill="#fff"/><path fill-rule="evenodd" clip-rule="evenodd" d="M195.567 200.114c1.26-.142 2.47-.333 2.69-.424s2.64-.087 5.379.009c5.242.183 7.257.635 10.799 2.427 3.62 1.831 5.32 3.203 27.817 22.449 1.184 1.013 2.382 2.066 2.662 2.34.399.391 7.952.498 35.042.498h34.152a1 1 0 0 1 .665.253l2.471 2.196c2.694 2.394 2.756 2.493 2.756 4.384v.934a1 1 0 0 1-1 1h-20.715a1 1 0 0 0-1 1v56.177a1 1 0 0 1-1.005.999l-.688-.003c-1.599-.01-1.946-.247-6.177-4.222-2.466-2.316-4.483-4.35-4.483-4.518s.537-.984 1.195-1.811l.978-1.231a1 1 0 0 0 .218-.623v-24.444a1 1 0 0 0-1-1h-5.721c-10.028 0-12.083.568-13.768 3.809-1.157 2.222-1.119 6.823.076 9.473 1.263 2.798 2.632 4.363 8.229 9.407 2.756 2.483 5.004 4.626 4.995 4.761s-.62.954-1.361 1.819l-.687.803a1 1 0 0 1-1.419.102l-1.939-1.702c-2.508-2.202-10.916-9.856-14.794-13.467a235 235 0 0 0-3.188-2.906l-1.168-1.039a1 1 0 0 1-.335-.747v-4.474c0-4.84.023-4.969 1.398-7.672 1.082-2.128 1.834-3.042 3.327-4.041 3.416-2.287 4.804-2.494 16.667-2.494h9.688a1 1 0 0 0 1-1v-9.956a1 1 0 0 0-1-1h-36.257a1 1 0 0 0-1 1v52.596a1 1 0 0 1-1 1h-.712c-1.585 0-2.018-.267-5.878-3.625-2.291-1.994-4.325-3.775-4.519-3.959-.2-.19.188-1.017.897-1.912l1.033-1.305c.14-.177.216-.396.216-.621v-15.333a1 1 0 0 0-1.323-.946l-1.566.536c-2.109.721-3.75.991-6.077 1-3.576.013-4.067-.177-7.643-2.967l-1.43-1.115a.822.822 0 0 0-1.309.474c-.771 3.562-4.301 8.539-7.141 10.068-.776.418-1.365.896-1.309 1.062s2.983 2.769 6.505 5.786c11.219 9.611 12.325 10.594 12.416 11.032.049.237-.446 1.053-1.1 1.815-1.123 1.308-1.241 1.352-2.127.797-.516-.324-2.07-1.574-3.452-2.78l-7.327-6.392c-2.647-2.31-7.803-6.749-11.457-9.864-7.376-6.287-9.043-8.044-10.55-11.126-2.566-5.244 1.224-8.102 9.153-6.9 1.678.254 3.568.61 4.198.791a.988.988 0 0 0 1.257-.859l.139-1.495c.425-4.575-.952-12.513-2.785-16.06l-.287-.555a1 1 0 0 0-.888-.541h-12.731c-7.337 0-13.34.092-13.34.205s.528 1.144 1.173 2.291c3.127 5.561 4.938 14.495 4.101 20.237-.782 5.368-3.754 10.287-7.579 12.547-.705.416-1.282.858-1.282.981 0 .227 2.951 2.825 13.013 11.455 3.102 2.661 5.767 5.044 5.923 5.295.28.453-2.03 3.178-2.693 3.178-.287 0-4.261-3.372-17.837-15.135-12.623-10.938-14.111-12.409-15.552-15.377-1.406-2.897-.721-5.577 1.686-6.592 1.61-.68 6.783-.669 10.024.02 1.598.34 2.463.367 2.743.086.261-.261.332-2.262.196-5.516-.21-5.013-.954-8.782-2.404-12.181l-.378-.886a1 1 0 0 0-.92-.608H147.65a1 1 0 0 0-1 1v54.583a1 1 0 0 1-1.004 1l-.69-.003c-1.577-.006-2-.28-6.176-3.999-2.466-2.195-4.484-4.158-4.484-4.362s.538-.983 1.196-1.732l.947-1.079a1 1 0 0 0 .248-.66v-8.641a.64.64 0 0 0-1.077-.47c-.592.549-2.399 1.669-4.014 2.489-2.654 1.347-3.305 1.507-6.753 1.658-5.714.25-9.592-.808-14.745-4.023-4.286-2.674-7.554-7.055-8.289-11.113-.391-2.155.459-5.514 1.953-7.727l.744-1.102a1 1 0 0 0-.293-1.404l-.959-.609c-4.516-2.864-7.912-6.601-9.915-10.913-.928-1.999-1.067-2.809-1.075-6.28-.008-3.325.137-4.283.875-5.779 1.184-2.401 3.5-4.728 5.69-5.717 2.512-1.133 8.097-1.361 11.557-.471 5.938 1.529 11.741 5.442 13.52 9.117 2.49 5.145-.924 9.899-7.742 10.779-2.688.346-3.727-.015-6.754-2.351-2.416-1.864-2.582-2.096-2.596-3.611l-.005-.535a1 1 0 0 1 1.072-1.007l1.238.09c2.005.145 2.463.04 3.388-.772 2.378-2.091 1.47-5.123-1.536-5.123-4.899 0-8.661 5.012-7.998 10.655.322 2.74 1.388 4.823 3.529 6.897 2.686 2.603 3.512 2.913 5.892 2.206 1.098-.326 3.022-.706 4.278-.844l1.878-.208a1 1 0 0 1 .725.206l2.568 2.004c2.714 2.117 2.889 2.35 2.889 3.82v.566a1 1 0 0 1-.999 1l-1.292.001c-3.19.003-5.083.619-6.871 2.235-1.767 1.596-2.793 4.158-2.793 6.974 0 2.555.484 3.66 2.164 4.942 1.212.924 1.79 1.078 4.013 1.065 1.428-.009 3.266-.236 4.085-.506 2.308-.762 5.603-3.2 9.804-7.253l3.539-3.414c.195-.189.305-.449.305-.72V236.78a1 1 0 0 0-.998-1l-4.017-.006a1 1 0 0 1-.643-.235l-2.71-2.286c-2.814-2.374-2.987-2.613-2.948-4.081l.017-.61a1 1 0 0 1 .975-.973l12.498-.306c.941-.023 1.332-1.214.589-1.79l-1.535-1.191c-12.589-9.763-23.436-12.982-34.123-10.126-7.391 1.974-11.873 5.68-16.544 13.678l-1.433 2.453a1 1 0 0 0-.136.505v60.157a1 1 0 0 1-1.002 1l-.891-.001c-1.78-.004-2.194-.235-6.954-3.886-2.783-2.135-5.062-4.061-5.065-4.28-.002-.219.527-1.02 1.176-1.778l.94-1.099a1 1 0 0 0 .239-.65V237.18a1 1 0 0 0-1-1H54.795c-10.63 0-19.328.072-19.328.159s.54 1.247 1.2 2.578c.661 1.331 1.68 3.905 2.266 5.72a235 235 0 0 0 1.106 3.381c.023.045.752-.171 1.62-.481 2.102-.748 7.03-.742 9.927.012 5.932 1.545 12.45 6.591 14.999 11.612 1.159 2.283 1.38 3.171 1.501 6 .125 2.95.023 3.562-.919 5.487-1.899 3.881-6.128 6.807-11.191 7.743-3.58.662-3.82.592-6.88-2.003-2.756-2.337-2.87-2.503-2.87-4.185v-.751a1 1 0 0 1 1-1h1.404c4.075 0 6.261-1.283 7.811-4.583 1.638-3.487 1.125-7.91-1.211-10.46-1.118-1.22-1.604-1.444-3.47-1.599-2.432-.201-4.273.402-6.57 2.154-1.666 1.271-4.883 5.912-5.9 8.51-1.23 3.148-5.42 7.97-6.925 7.97a.87.87 0 0 0-.663.365c-.182.295 6.541 6.436 16.93 15.462.48.418 1.227.978 1.63 1.199.117.063.233.157.343.23.09.062.192.129.214.244a.53.53 0 0 1-.043.277c-.26.717-1.987 3.344-2.596 3.344-.37 0-7.226-5.93-15.687-13.569-1.104-.997-4.787-4.249-8.184-7.227-8.195-7.183-10.361-9.987-10.361-13.406 0-3.981 4.61-5.446 12.127-3.854 1.519.322 2.864.483 2.988.358s.225-2.409.223-5.075c-.004-5.075-.7-8.941-2.287-12.719l-.538-1.28a1 1 0 0 0-.922-.613H6.498c-.238 0-.468-.085-.65-.239l-1.88-1.606c-1.19-1.015-2.569-2.112-3.065-2.437-.734-.481-.903-.955-.903-2.538v-.947a1 1 0 0 1 1-1l73.135-.006a1 1 0 0 0 .872-.509l.666-1.182c3.472-6.162 9.198-12.661 13.792-15.655 6.733-4.389 18.233-6.505 25.621-4.715 3.486.844 9.361 3.602 13.18 6.187 4.811 3.256 7.924 5.91 13.603 11.598l3.985 3.991c.188.188.444.294.71.294l89.089-.196c.928-.002 1.353-1.159.646-1.761l-4.018-3.426a1366 1366 0 0 1-7.697-6.598c-7.907-6.92-13.057-8.527-22.342-6.973l-2.721.456a1 1 0 0 1-.824-.234l-.839-.735c-4.247-3.717-4.583-4.15-4.583-5.895v-.788a1 1 0 0 1 .888-.994zm43.536 50.058a1 1 0 0 1-.473.849l-1.818 1.127c-3.848 2.386-5.513 2.909-9.066 2.849-1.753-.029-4.084-.285-5.18-.568l-1.353-.35a1 1 0 0 1-.738-.818l-.37-2.431c-.641-4.213-1.512-7.074-3.352-11.018-.858-1.839-1.56-3.408-1.56-3.487s5.38-.145 11.955-.145h10.955a1 1 0 0 1 1 1z" fill="#fff"/><path d="M160.199.777c0 1.015-1.264 5.712-2.518 9.358-2.667 7.75-6.907 16.536-13.944 28.892-4.607 8.087-5.407 9.45-8.668 14.764a1169 1169 0 0 0-5.435 8.947c-1.18 1.972-2.31 3.855-2.509 4.184-2.697 4.443-7.936 13.27-8.514 14.346-.413.767-2.103 3.816-3.758 6.775-7.999 14.307-13.546 28.117-15.816 39.376-1.05 5.209-.903 17.212.21 17.212.196 0 .839-1.031 1.43-2.292 7.483-15.966 29.483-28.181 60.404-33.539 12.771-2.213 32.113-3.454 46.681-2.997l8.31.262-.297-.941c-1.279-4.048-7.817-15.385-19.503-33.818C177.529 41.738 169.439 25.9 163.4 6.946c-.908-2.848-1.816-5.583-2.019-6.076-.457-1.115-1.182-1.172-1.182-.093" fill="#ED1B24"/><path d="M244.939 37.739c-.136.219-.075 1.719.135 3.334.865 6.664.413 14.215-1.247 20.84-1.371 5.471-2.418 6.663-5.138 5.848-.821-.246-4.785-2.033-8.808-3.971-11.802-5.686-16.676-7.782-22.805-9.811-4.852-1.606-10.539-3.088-11.112-2.897-.228.076 1.449 1.465 3.728 3.086 4.131 2.94 4.784 3.468 10.344 8.37 13.676 12.06 22.218 26.495 25.116 42.441 1.15 6.327 1.257 17.032.238 23.711-1.416 9.274-4.967 21.507-8.62 29.689-2.301 5.154-4.078 8.968-5.186 11.132-2.45 4.784-1.768 4.367 6.781-4.155 5.831-5.812 6.957-7.07 11.616-12.98 10.227-12.973 17.198-27.251 20.417-41.818 1.81-8.191 2.02-10.347 1.98-20.323-.042-10.794-.598-14.978-3.199-24.063-1.77-6.185-3.115-9.615-6.173-15.743-2.71-5.431-7.701-13.282-8.067-12.69" fill="#ED1B24"/><path d="M221.452 28.48c-3.251 1.193-5.747 3.544-7.391 6.96-2.82 5.864-.01 13.154 6.256 16.231 1.906.936 2.733 1.1 5.436 1.083 3.868-.027 6.283-1.098 8.919-3.958 2.417-2.622 3.371-4.969 3.406-8.381.054-5.204-3.186-9.904-8.122-11.78-2.377-.903-6.273-.974-8.504-.156m-12.635 82.319c-27.269 2.803-46.173 9.928-54.496 20.54-.712.908-1.295 1.777-1.295 1.931s-.344.763-.765 1.354c-.42.591-1.176 2.322-1.679 3.847-1.091 3.308-1.284 10.156-.386 13.732 1.146 4.565 4.482 10.977 9.697 18.639l2.897 4.255.102-23.265c.076-17.132.227-23.415.573-23.832.489-.589 8.851-4.888 9.508-4.888.234 0 .377 12.362.377 32.477v32.475l4.036 4.386c2.221 2.412 4.171 4.386 4.335 4.386.165 0 .948-.272 1.742-.603l1.444-.603V120.01l1.096-.28c3.239-.826 8.706-1.717 8.964-1.461.163.162.342 16.31.398 35.883l.102 35.588 2.552-2.04c1.403-1.122 3.782-3.246 5.286-4.721l2.734-2.682.188-63.739 1.686-.288c.927-.158 3.168-.343 4.981-.41l3.295-.121.2 23.962c.133 16.042.331 23.809.597 23.497.22-.257.44-.639.49-.849.051-.211.71-1.997 1.464-3.97 2.833-7.404 4.222-14.696 4.213-22.117-.009-7.664-1.553-16.423-4.073-23.113l-.976-2.591-2.95-.054c-1.622-.03-4.474.103-6.337.294" fill="#ED1B24"/><path d="M172.752 111.032c-18.451 2.397-31.729 7.88-40.805 16.85-6.62 6.543-10.898 14.888-12.568 24.519-1.218 7.026-.69 18.89 1.162 26.103l.665 2.59 5.449 3.69c2.998 2.029 5.582 3.688 5.743 3.686s-.089-.945-.556-2.096c-2.598-6.402-4.44-12.912-5.52-19.516-.701-4.288-.308-13.852.744-18.053 2.222-8.886 7.493-16.853 15.053-22.757 5.957-4.651 14.349-9.042 21.945-11.481 2.921-.939 11.468-3.144 13.67-3.527 1.233-.215-3.333-.222-4.982-.008M72.562 41c-16.581 25.251-19.59 55.56-8.33 83.882 4.694 11.802 12.195 23.72 21.447 34.07 5.223 5.843 14.346 14.624 14.346 13.808 0-.143-.825-1.913-1.833-3.933-7.475-14.976-12.209-29.773-13.728-42.908-.548-4.732-.315-16.764.397-20.541 1.602-8.501 5.075-17.58 9.3-24.309 5.964-9.5 17.217-20.858 27.495-27.752l.455-.304c1.932-1.295 2.306-1.546 2.27-1.697-.009-.037-.042-.068-.082-.105l-.039-.038c-.114-.114-1.436.078-2.938.426-6.918 1.605-17.878 5.732-26.478 9.97-8.398 4.14-13.013 6.23-14.19 6.427-2.415.404-3.801-2.264-5.154-9.922-.616-3.487-.819-14.106-.349-18.263.149-1.308.153-2.378.012-2.378-.142 0-1.313 1.605-2.601 3.567" fill="#ED1B24"/><path d="M90.326 28.486c-3.515 1.289-6.855 4.848-7.835 8.35-.805 2.871-.343 6.9 1.082 9.433 2.48 4.415 7.37 7.06 12.13 6.563 10.229-1.07 15.07-12.949 8.389-20.586-2.576-2.945-5.708-4.386-9.447-4.35-1.534.016-3.478.28-4.319.59" fill="#ED1B24"/></svg>