<svg width="219" height="210" viewBox="0 0 219 210" fill="none" xmlns="http://www.w3.org/2000/svg"><path d="M109.763.83c0 1.082-1.352 6.093-2.692 9.983-2.851 8.269-7.384 17.642-14.907 30.824-4.925 8.629-5.78 10.082-9.266 15.752a1211 1211 0 0 0-5.81 9.545c-1.262 2.104-2.47 4.113-2.683 4.464-2.883 4.74-8.483 14.158-9.101 15.306-.441.818-2.248 4.07-4.017 7.228-8.552 15.264-14.482 29.997-16.909 42.009-1.123 5.558-.965 18.363.226 18.363.209 0 .896-1.1 1.528-2.445 7.999-17.034 31.518-30.066 64.574-35.782 13.653-2.361 34.33-3.686 49.903-3.197l8.884.279-.318-1.004c-1.367-4.318-8.357-16.414-20.849-36.08-20.037-31.545-28.685-48.442-35.141-68.663-.971-3.04-1.942-5.958-2.158-6.484-.49-1.19-1.264-1.25-1.264-.099" fill="#ED1B24"/><path d="M200.352 40.263c-.145.234-.079 1.834.145 3.557.925 7.11.441 15.166-1.333 22.233-1.466 5.838-2.585 7.11-5.493 6.24-.878-.262-5.115-2.169-9.416-4.237-12.617-6.065-17.827-8.302-24.379-10.467-5.188-1.713-11.266-3.295-11.879-3.09-.244.08 1.549 1.563 3.985 3.292 4.416 3.136 5.114 3.7 11.058 8.93 14.62 12.867 23.752 28.267 26.85 45.28 1.229 6.749 1.344 18.171.254 25.297-1.513 9.894-5.31 22.945-9.215 31.674-2.459 5.499-4.359 9.568-5.543 11.876-2.62 5.105-1.891 4.659 7.249-4.433 6.233-6.2 7.436-7.542 12.417-13.847 10.933-13.841 18.386-29.074 21.826-44.615 1.935-8.74 2.16-11.039 2.118-21.683-.046-11.516-.64-15.98-3.421-25.672-1.892-6.599-3.329-10.258-6.598-16.796-2.897-5.794-8.233-14.171-8.625-13.539" fill="#ED1B24"/><path d="M175.245 30.384c-3.477 1.273-6.145 3.782-7.902 7.426-3.014 6.256-.01 14.034 6.688 17.317 2.038.999 2.921 1.174 5.812 1.155 4.134-.028 6.716-1.171 9.533-4.222 2.584-2.798 3.604-5.302 3.642-8.942.058-5.553-3.406-10.566-8.683-12.567-2.541-.964-6.706-1.04-9.09-.167m-13.508 87.825c-29.152 2.991-49.361 10.592-58.258 21.914-.761.968-1.384 1.896-1.384 2.06s-.368.814-.818 1.444-1.258 2.477-1.796 4.105c-1.166 3.529-1.372 10.835-.412 14.65 1.225 4.87 4.791 11.711 10.366 19.885l3.097 4.541.11-24.822c.081-18.278.242-24.981.612-25.425.523-.629 9.462-5.215 10.165-5.215.249 0 .403 13.188.403 34.648v34.648l4.315 4.679c2.373 2.574 4.458 4.679 4.634 4.679.175 0 1.013-.29 1.862-.643l1.543-.644v-80.677l1.172-.298c3.463-.881 9.307-1.832 9.583-1.559.174.173.366 17.401.426 38.283l.108 37.968 2.728-2.175c1.501-1.198 4.043-3.464 5.651-5.038l2.923-2.861.201-68.002 1.802-.307c.991-.169 3.388-.366 5.325-.437l3.523-.13.213 25.565c.143 17.115.354 25.401.639 25.068.235-.274.471-.681.524-.906s.759-2.13 1.565-4.235c3.028-7.899 4.513-15.679 4.504-23.596-.01-8.177-1.66-17.522-4.355-24.659l-1.043-2.764-3.154-.058c-1.734-.032-4.782.109-6.774.314" fill="#ED1B24"/><path d="M123.182 118.459c-19.724 2.556-33.92 8.406-43.621 17.976-7.078 6.981-11.65 15.884-13.436 26.16-1.302 7.495-.738 20.152 1.242 27.848l.711 2.763 5.825 3.937c3.205 2.165 5.967 3.935 6.139 3.932.172-.002-.095-1.008-.594-2.235-2.777-6.831-4.746-13.776-5.9-20.822-.75-4.575-.33-14.778.794-19.261 2.376-9.48 8.01-17.979 16.093-24.278 6.368-4.963 15.339-9.647 23.459-12.25 3.123-1.001 12.26-3.353 14.614-3.762 1.318-.23-3.563-.237-5.326-.008M16.076 43.742c-17.726 26.94-20.943 59.277-8.904 89.492 5.016 12.592 13.036 25.307 22.926 36.349 5.583 6.234 15.337 15.603 15.337 14.732 0-.153-.882-2.041-1.96-4.196-7.99-15.978-13.051-31.765-14.676-45.778-.585-5.048-.336-17.885.424-21.915 1.713-9.07 5.426-18.756 9.942-25.935 6.377-10.135 18.407-22.253 29.394-29.607l.486-.326c2.065-1.38 2.466-1.649 2.427-1.81-.01-.04-.045-.072-.088-.112l-.042-.04c-.121-.122-1.535.083-3.14.454-7.396 1.712-19.112 6.115-28.306 10.638-8.978 4.416-13.912 6.646-15.17 6.856-2.581.431-4.063-2.416-5.51-10.585-.658-3.72-.875-15.05-.372-19.486.159-1.395.164-2.537.012-2.537s-1.403 1.713-2.78 3.806" fill="#ED1B24"/><path d="M35.066 30.391c-3.758 1.375-7.328 5.172-8.376 8.908-.86 3.064-.366 7.362 1.157 10.065 2.651 4.71 7.88 7.532 12.967 7.001 10.935-1.14 16.11-13.815 8.968-21.963-2.753-3.14-6.101-4.679-10.099-4.64-1.64.017-3.717.3-4.617.629" fill="#ED1B24"/></svg>