<?xml version="1.0" encoding="UTF-8"?>
<svg version="1.1" xmlns="http://www.w3.org/2000/svg" width="489" height="267">
<path d="M0 0 C161.37 0 322.74 0 489 0 C489 88.11 489 176.22 489 267 C327.63 267 166.26 267 0 267 C0 178.89 0 90.78 0 0 Z " fill="#FEFEFE" transform="translate(0,0)"/>
<path d="M0 0 C8.8178217 8.97847027 11.88372616 25.97400988 13 38 C13.16048828 39.50046875 13.16048828 39.50046875 13.32421875 41.03125 C13.91070178 51.35335127 10.42541246 60.43012097 7 70 C6.60554688 71.15757813 6.21109375 72.31515625 5.8046875 73.5078125 C3.18184933 80.82608125 -0.27458202 87.53920598 -4.1418457 94.26611328 C-4.5255835 94.95302246 -4.90932129 95.63993164 -5.3046875 96.34765625 C-5.8303833 97.26043335 -5.8303833 97.26043335 -6.36669922 98.19165039 C-7.18593728 100.53093192 -6.85459567 101.69954434 -6 104 C-4.65413709 105.9670304 -3.22377013 107.87688571 -1.75 109.75 C-1.30962402 110.31146729 -0.86924805 110.87293457 -0.41552734 111.45141602 C1.04732889 113.30827429 2.52203897 115.15514577 4 117 C4.51208008 117.64114746 5.02416016 118.28229492 5.55175781 118.94287109 C9.32867979 123.66110748 13.15102575 128.34041365 17 133 C17.52416504 133.63679687 18.04833008 134.27359375 18.58837891 134.9296875 C33.663667 153.16950892 54.99244076 172.75222027 79 178 C82.65224305 177.6679779 84.32250592 176.0289195 86.8125 173.4375 C87.51117188 172.71175781 88.20984375 171.98601562 88.9296875 171.23828125 C91.38860445 168.57986727 93.78734302 165.87882666 96.15234375 163.13671875 C99.70244217 159.03121382 103.33647254 155.00432072 107 151 C107.58652344 150.34644531 108.17304688 149.69289062 108.77734375 149.01953125 C114.21780898 143.22063537 121.6887515 137.32690849 129.87573242 136.82299805 C132.97615761 136.76839854 136.07613413 136.72342477 139.17700195 136.70483398 C141.16315908 136.68770986 143.14902687 136.64382424 145.13476562 136.59960938 C155.29395892 136.53253497 161.46720307 138.02387055 168.71630859 145.16186523 C169.22242676 145.68594971 169.72854492 146.21003418 170.25 146.75 C170.79865723 147.3056665 171.34731445 147.86133301 171.91259766 148.43383789 C176.69189791 153.40548753 180.826888 158.79708669 184.77832031 164.44238281 C188.49617616 169.67600028 192.65070176 175.02312135 199 176.875 C204.9005458 175.15400747 207.91560676 169.81898221 210.9375 164.75 C213.39645311 156.07134197 212.70458592 148.9552337 208.38671875 141.05859375 C207.08488357 138.96690074 207.08488357 138.96690074 205.33203125 137.41015625 C204 136 204 136 204 133 C222.37593985 132.45864662 222.37593985 132.45864662 230 135 C235.54092966 140.75293044 236.42077444 145.28629389 236.35913086 153.14916992 C236.07074686 163.16538565 232.34186451 169.6322268 225.50390625 176.796875 C213.65112251 187.22584541 197.81162876 185.69939485 183 185 C170.56093548 183.552456 163.66835323 177.41557295 156 168 C155.195625 167.05125 154.39125 166.1025 153.5625 165.125 C152 163 152 163 152 161 C151.34 161 150.68 161 150 161 C148.2734375 159.03125 148.2734375 159.03125 146.375 156.5 C145.74335938 155.6646875 145.11171875 154.829375 144.4609375 153.96875 C143.73777344 152.99421875 143.73777344 152.99421875 143 152 C138.16615326 153.43408383 135.32767396 156.35818123 131.95703125 159.92578125 C130.78868627 161.12722042 129.62005723 162.32838343 128.45117188 163.52929688 C126.63441231 165.41400466 124.82197396 167.30256527 123.01538086 169.19702148 C113.17886603 179.47801802 105.08411759 185.9384114 90.6875 188.3125 C89.72054199 188.47637207 88.75358398 188.64024414 87.75732422 188.80908203 C70.09957693 191.47876194 48.77836312 193.36751332 32.625 184.4375 C31.98216064 184.08743896 31.33932129 183.73737793 30.67700195 183.37670898 C24.53458485 179.9229846 19.24244173 175.69984502 14 171 C13.10152344 170.20980469 12.20304687 169.41960937 11.27734375 168.60546875 C-0.17618593 158.43392472 -10.78238808 147.38819508 -19.87768555 135.05078125 C-22.01926368 132.05749651 -22.01926368 132.05749651 -25 130 C-25.23460937 130.67804688 -25.46921875 131.35609375 -25.7109375 132.0546875 C-27.30034859 135.68625101 -29.40339642 138.86078163 -31.625 142.125 C-32.29486938 143.11632935 -32.29486938 143.11632935 -32.97827148 144.12768555 C-39.44087505 153.64588273 -46.09221553 162.61774846 -54 171 C-54.87785156 171.95712891 -54.87785156 171.95712891 -55.7734375 172.93359375 C-60.94178181 178.38098012 -66.83201319 183.38694962 -73.88671875 186.1171875 C-77.47197304 185.98223439 -77.89755056 185.55676172 -80.359375 183.140625 C-81.50898676 181.86091861 -82.63870417 180.56311737 -83.75 179.25 C-84.32621094 178.60289062 -84.90242188 177.95578125 -85.49609375 177.2890625 C-92 169.92100087 -92 169.92100087 -92 166 C-89.8046875 164.1328125 -89.8046875 164.1328125 -86.875 162.125 C-85.86566406 161.4134375 -84.85632813 160.701875 -83.81640625 159.96875 C-82.42228516 158.99421875 -82.42228516 158.99421875 -81 158 C-75.28937905 153.74502753 -71.26983949 148.63913285 -67 143 C-66.36288086 142.15937012 -66.36288086 142.15937012 -65.71289062 141.30175781 C-50.68196669 123.74023911 -50.68196669 123.74023911 -43.20703125 103.62109375 C-44.14360506 100.52532515 -45.52616799 98.32483927 -47.3125 95.625 C-51.35421455 89.31184569 -54.89260434 82.76028334 -58.375 76.125 C-58.89876221 75.13838379 -59.42252441 74.15176758 -59.9621582 73.13525391 C-68.04474742 57.61784121 -68.61714548 38.34959392 -64.3125 21.375 C-63.60214305 19.22902655 -62.83669507 17.09994057 -62 15 C-61.62617187 14.030625 -61.25234375 13.06125 -60.8671875 12.0625 C-57.78456155 5.03982895 -54.29787205 2.03795811 -47.50390625 -1.18359375 C-34.43066645 -6.20107888 -12.32178914 -7.587211 0 0 Z " fill="#242424" transform="translate(187,47)"/>
<path d="M0 0 C0.33 0 0.66 0 1 0 C1.24234375 1.28519531 1.4846875 2.57039063 1.734375 3.89453125 C2.91757559 9.17667672 4.90209284 13.82670769 7.25 18.6875 C7.68038574 19.58452637 8.11077148 20.48155273 8.55419922 21.40576172 C15.83165786 36.14204072 25.10382126 49.90269046 35 63 C35.86019528 64.17422943 36.71809878 65.35013974 37.57421875 66.52734375 C46.89269668 79.34066207 56.55605105 91.78950534 66.67578125 103.98046875 C68.65273375 106.36274955 70.6147224 108.75391638 72.54296875 111.17578125 C92.57584868 136.24347348 118.65230871 150.89563858 150 157 C150 157.33 150 157.66 150 158 C140.38960157 158.63365264 133.14052953 156.92496945 124 154 C128.95 155.65 133.9 157.3 139 159 C139 159.33 139 159.66 139 160 C130.94116191 160.80588381 124.39544688 157.86608806 117 155 C116.01 154.67 115.02 154.34 114 154 C118.58154261 156.39542583 123.0276578 158.50829734 128 160 C128 160.33 128 160.66 128 161 C123.17639811 161.19294408 119.50353262 160.75747614 115 159 C115.66 159.66 116.32 160.32 117 161 C96.77307268 162.09170822 82.89647643 154.3198254 67.91015625 141.62890625 C57.7163047 132.4202323 48.54660746 122.70797661 40.30615234 111.72070312 C38.99637443 109.99522373 37.65598202 108.29935568 36.30078125 106.609375 C18.93862422 84.95165035 3.0022069 61.57562194 -8 36 C-8.38027344 35.195625 -8.76054688 34.39125 -9.15234375 33.5625 C-10.21998736 30.33496909 -10.19350899 27.57869477 -10.125 24.1875 C-10.10695313 23.02605469 -10.08890625 21.86460938 -10.0703125 20.66796875 C-10.04710938 19.78753906 -10.02390625 18.90710938 -10 18 C-9.34 18 -8.68 18 -8 18 C-7.67 18.33 -7.34 18.66 -7 19 C-7.061875 18.071875 -7.12375 17.14375 -7.1875 16.1875 C-6.96970704 12.48501975 -6.50445833 12.40428 -4 10 C-3.2730774 6.89160979 -3.2730774 6.89160979 -3 4 C-2.67 4.99 -2.34 5.98 -2 7 C-1.34 7 -0.68 7 0 7 C0 4.69 0 2.38 0 0 Z " fill="#F9F9F9" transform="translate(133,74)"/>
<path d="M0 0 C18.37593985 -0.54135338 18.37593985 -0.54135338 26 2 C31.54092966 7.75293044 32.42077444 12.28629389 32.35913086 20.14916992 C32.07074686 30.16538565 28.34186451 36.6322268 21.50390625 43.796875 C9.65112251 54.22584541 -6.18837124 52.69939485 -21 52 C-33.43906452 50.552456 -40.33164677 44.41557295 -48 35 C-48.804375 34.05125 -49.60875 33.1025 -50.4375 32.125 C-52 30 -52 30 -52 28 C-52.66 28 -53.32 28 -54 28 C-55.7265625 26.03125 -55.7265625 26.03125 -57.625 23.5 C-58.25664062 22.6646875 -58.88828125 21.829375 -59.5390625 20.96875 C-60.02117187 20.3190625 -60.50328125 19.669375 -61 19 C-66.21827179 20.46580668 -69.03980814 23.79424705 -72.625 27.625 C-73.75585955 28.83226897 -74.89359478 30.03314497 -76.0390625 31.2265625 C-76.78470459 32.02441162 -76.78470459 32.02441162 -77.54541016 32.83837891 C-79 34 -79 34 -82 34 C-83.82210061 35.83474439 -83.82210061 35.83474439 -85.625 38.1875 C-89.5604768 42.8153292 -93.53371144 45.45965013 -99 48 C-99.99 48.495 -99.99 48.495 -101 49 C-102.54023996 49.06950541 -104.08334988 49.08452357 -105.625 49.0625 C-106.85089844 49.04896484 -106.85089844 49.04896484 -108.1015625 49.03515625 C-108.72804688 49.02355469 -109.35453125 49.01195312 -110 49 C-110.33 48.34 -110.66 47.68 -111 47 C-112.98 47.495 -112.98 47.495 -115 48 C-114.67 47.01 -114.34 46.02 -114 45 C-114.99 45.66 -115.98 46.32 -117 47 C-117.99 46.67 -118.98 46.34 -120 46 C-119.18208984 45.21689453 -119.18208984 45.21689453 -118.34765625 44.41796875 C-114.24827271 40.41669011 -110.41957823 36.37830225 -106.875 31.875 C-102.9623565 27.00486099 -98.76384905 22.5073815 -94.375 18.0625 C-93.75351074 17.4236084 -93.13202148 16.7847168 -92.49169922 16.12646484 C-87.09876355 10.73924355 -81.46213399 6.21703125 -73.54223633 5.90234375 C-72.64786865 5.91394531 -71.75350098 5.92554688 -70.83203125 5.9375 C-69.85685547 5.94523438 -68.88167969 5.95296875 -67.87695312 5.9609375 C-66.86568359 5.97382813 -65.85441406 5.98671875 -64.8125 6 C-62.7982293 6.02538463 -60.78389804 6.04645992 -58.76953125 6.0625 C-57.43305542 6.07990234 -57.43305542 6.07990234 -56.06958008 6.09765625 C-54.00873344 6.23306413 -54.00873344 6.23306413 -53 5 C-57.62 5 -62.24 5 -67 5 C-67 4.67 -67 4.34 -67 4 C-63.99900412 3.89109289 -61.00203622 3.81226445 -58 3.75 C-57.16082031 3.71648437 -56.32164062 3.68296875 -55.45703125 3.6484375 C-47.79334021 3.52962058 -42.52522913 5.58679275 -36.796875 10.671875 C-35.76817511 11.68480747 -34.75289098 12.71150815 -33.75 13.75 C-32.92701416 14.58349976 -32.92701416 14.58349976 -32.08740234 15.43383789 C-27.30810209 20.40548753 -23.173112 25.79708669 -19.22167969 31.44238281 C-15.50382384 36.67600028 -11.34929824 42.02312135 -5 43.875 C0.9005458 42.15400747 3.91560676 36.81898221 6.9375 31.75 C9.39645311 23.07134197 8.70458592 15.9552337 4.38671875 8.05859375 C3.08488357 5.96690074 3.08488357 5.96690074 1.33203125 4.41015625 C0 3 0 3 0 0 Z " fill="#262626" transform="translate(391,180)"/>
<path d="M0 0 C0.66 0 1.32 0 2 0 C1.67 1.65 1.34 3.3 1 5 C1.99 4.34 2.98 3.68 4 3 C4 3.99 4 4.98 4 6 C4.66 6 5.32 6 6 6 C6 6.99 6 7.98 6 9 C6.66 9 7.32 9 8 9 C9.0625 10.8125 9.0625 10.8125 10 13 C9.67 13.99 9.34 14.98 9 16 C9.99 15.34 10.98 14.68 12 14 C11.505 15.175625 11.505 15.175625 11 16.375 C9.88133489 18.84332497 9.88133489 18.84332497 10 21 C11.32 19.68 12.64 18.36 14 17 C12.55049545 20.7910119 10.84827434 24.3874638 9 28 C11.475 24.535 11.475 24.535 14 21 C14.495 21.99 14.495 21.99 15 23 C-15.91546112 69.96518987 -15.91546112 69.96518987 -33 77 C-38.12731085 75.87679311 -40.65460115 72.38729337 -43.8125 68.5 C-44.31458984 67.90574219 -44.81667969 67.31148438 -45.33398438 66.69921875 C-49 62.28004889 -49 62.28004889 -49 60 C-47.27734375 58.703125 -47.27734375 58.703125 -44.9375 57.25 C-35.22594872 50.90652949 -28.91504455 43.20276747 -22 34 C-21.29617187 33.06671875 -20.59234375 32.1334375 -19.8671875 31.171875 C-16.02642652 25.97829537 -12.36391327 20.66538933 -8.75 15.3125 C-8.13112915 14.40383179 -8.13112915 14.40383179 -7.49975586 13.47680664 C-4.60595263 9.14403083 -2.25759511 4.69641918 0 0 Z " fill="#F8F8F8" transform="translate(146,154)"/>
<path d="M0 0 C0.93199219 -0.03738281 1.86398438 -0.07476562 2.82421875 -0.11328125 C9.4588174 -0.19895039 9.4588174 -0.19895039 12.953125 2.3359375 C15.86625857 9.1624975 12.90412425 16.34157281 10.375 22.9375 C10.07907959 23.72745361 9.78315918 24.51740723 9.47827148 25.33129883 C5.28492591 36.24492461 0.24295204 46.80990806 -4.75 57.375 C-9.12714797 55.91595068 -10.47933334 52.53604887 -12.75 48.75 C-13.22477783 47.96181885 -13.69955566 47.1736377 -14.1887207 46.36157227 C-18.04783285 39.81736452 -21.57621297 33.12451699 -24.9375 26.3125 C-25.65969727 24.88719971 -25.65969727 24.88719971 -26.39648438 23.43310547 C-29.27262418 17.43763833 -30.48332163 13.03435316 -29.75 6.375 C-27.625 4.4375 -27.625 4.4375 -24.75 3.375 C-23.821875 3.00375 -22.89375 2.6325 -21.9375 2.25 C-14.76224424 0.28032195 -7.39946155 0.11447831 0 0 Z " fill="#FAFAFA" transform="translate(166.75,65.625)"/>
<path d="M0 0 C1.44536133 -0.01740234 1.44536133 -0.01740234 2.91992188 -0.03515625 C9.65622342 -0.00790216 17.58969014 0.32775262 23.09204102 4.68530273 C25.94677522 7.87259716 27.36510794 11.28041213 28.4375 15.375 C27.1175 14.715 25.7975 14.055 24.4375 13.375 C26.0875 15.355 27.7375 17.335 29.4375 19.375 C29.1075 20.035 28.7775 20.695 28.4375 21.375 C27.1175 20.715 25.7975 20.055 24.4375 19.375 C24.99179688 19.96667969 25.54609375 20.55835937 26.1171875 21.16796875 C27.20386719 22.35326172 27.20386719 22.35326172 28.3125 23.5625 C29.39144531 24.72845703 29.39144531 24.72845703 30.4921875 25.91796875 C33.97118014 30.31211809 34.69531197 33.83204267 34.4375 39.375 C32.33929394 36.64547531 30.45749895 33.85031514 28.625 30.9375 C25.35038746 26.04171229 22.44905614 21.97347485 16.37109375 20.765625 C2.56598333 19.39471036 -16.07705774 17.94328267 -28.125 25.9375 C-31.77498786 29.09446118 -34.05221844 32.99291667 -36.3359375 37.203125 C-37.5625 39.375 -37.5625 39.375 -39.5625 41.375 C-39.82210445 35.10122576 -38.95289421 29.79355763 -37.3125 23.75 C-37.10753906 22.93015625 -36.90257813 22.1103125 -36.69140625 21.265625 C-35.02059128 14.96715889 -32.79605545 9.25526631 -27 5.6875 C-18.48532027 0.93775859 -9.60989391 -0.11617064 0 0 Z " fill="#FAFAFA" transform="translate(162.5625,44.625)"/>
<path d="M0 0 C5.75 4.75 5.75 4.75 8 7 C8 7.99 8 8.98 8 10 C8.66 10 9.32 10 10 10 C15.10617502 19.59231451 16.51155894 26.31931034 13.5 36.8125 C12.69471253 39.22265114 11.86529046 41.61166224 11 44 C10.7102832 44.80501953 10.42056641 45.61003906 10.12207031 46.43945312 C6.31404324 56.92802514 2.36090353 67.19198331 -3 77 C-4.39195915 72.82412255 -2.82323219 70.86525224 -1 67 C-2.65 69.97 -4.3 72.94 -6 76 C-7.04449911 72.86650268 -6.93423645 72.01031744 -6 69 C-6.66 70.32 -7.32 71.64 -8 73 C-8.66 73 -9.32 73 -10 73 C-9.34 70.69 -8.68 68.38 -8 66 C-8.66 67.32 -9.32 68.64 -10 70 C-10.66 70 -11.32 70 -12 70 C-12 69.01 -12 68.02 -12 67 C-12.66 67 -13.32 67 -14 67 C-14 66.34 -14 65.68 -14 65 C-14.66 65 -15.32 65 -16 65 C-18.57752101 61.53026018 -19.43154755 59.27900666 -19 55 C-18.05581614 52.64384514 -17.07076556 50.44747702 -15.9375 48.1875 C-15.29392112 46.85626604 -14.65205069 45.52420505 -14.01171875 44.19140625 C-13.67962402 43.50449707 -13.3475293 42.81758789 -13.00537109 42.10986328 C-9.08959453 33.89224767 -5.21816035 25.51851841 -2.5546875 16.8046875 C-2.05417859 15.1762712 -1.43950689 13.58401741 -0.8125 12 C0.28047885 7.96438579 0.16616487 4.15412174 0 0 Z " fill="#F4F4F4" transform="translate(182,68)"/>
<path d="M0 0 C0.9796875 0.00322266 1.959375 0.00644531 2.96875 0.00976562 C3.98453125 0.01814453 5.0003125 0.02652344 6.046875 0.03515625 C7.59375 0.04192383 7.59375 0.04192383 9.171875 0.04882812 C11.71360073 0.06059537 14.25520819 0.07703614 16.796875 0.09765625 C13.66861258 3.22915332 10.5344477 6.35454108 7.39453125 9.47434998 C5.12312577 11.73224035 2.8544957 13.99291144 0.5859375 16.25366211 C-0.605876 17.44043382 -1.79858367 18.62630824 -2.9921875 19.8112793 C-4.73157369 21.53845339 -6.46763628 23.26891075 -8.203125 25 C-8.73035156 25.52206528 -9.25757813 26.04413055 -9.80078125 26.58201599 C-12.30886134 29.08972023 -14.68433311 31.62815655 -16.92895508 34.37597656 C-19.15105162 37.0353359 -20.83573056 38.35936943 -23.890625 39.91015625 C-24.65761719 40.30847656 -25.42460937 40.70679688 -26.21484375 41.1171875 C-26.87097656 41.44074219 -27.52710938 41.76429688 -28.203125 42.09765625 C-29.193125 42.59265625 -29.193125 42.59265625 -30.203125 43.09765625 C-31.74336496 43.16716166 -33.28647488 43.18217982 -34.828125 43.16015625 C-36.05402344 43.14662109 -36.05402344 43.14662109 -37.3046875 43.1328125 C-37.93117188 43.12121094 -38.55765625 43.10960937 -39.203125 43.09765625 C-39.533125 42.43765625 -39.863125 41.77765625 -40.203125 41.09765625 C-42.183125 41.59265625 -42.183125 41.59265625 -44.203125 42.09765625 C-43.873125 41.10765625 -43.543125 40.11765625 -43.203125 39.09765625 C-44.193125 39.75765625 -45.183125 40.41765625 -46.203125 41.09765625 C-47.193125 40.76765625 -48.183125 40.43765625 -49.203125 40.09765625 C-48.38521484 39.31455078 -48.38521484 39.31455078 -47.55078125 38.515625 C-43.45139771 34.51434636 -39.62270323 30.4759585 -36.078125 25.97265625 C-32.1654815 21.10251724 -27.96697405 16.60503775 -23.578125 12.16015625 C-22.95663574 11.52126465 -22.33514648 10.88237305 -21.69482422 10.22412109 C-15.2887357 3.82482048 -9.25667138 -0.05381786 0 0 Z " fill="#F7F7F7" transform="translate(320.203125,185.90234375)"/>
<path d="M0 0 C0.7425 0.185625 1.485 0.37125 2.25 0.5625 C4.89607108 1.21601904 4.89607108 1.21601904 6.87890625 0.29296875 C9 0 9 0 11.26171875 1.484375 C20.71053317 10.30935466 28.41739846 20.32392289 36 30.75 C38.3626697 33.40800341 41.04338748 35.05132357 44 37 C44 37.66 44 38.32 44 39 C36.2486321 41.90531031 27.77655592 42.52993603 20 39.3125 C16.31419104 37.38597916 13.74065922 35.1622991 11 32 C10.40703125 31.3503125 9.8140625 30.700625 9.203125 30.03125 C4.87583789 25.26787969 0.8149344 20.33693029 -3.140625 15.26171875 C-4.97929368 12.93899476 -4.97929368 12.93899476 -7.234375 10.83203125 C-9 9 -9 9 -9 7 C-5.55571735 8.44781793 -3.63869038 10.27694609 -1.25 13.125 C-0.63640625 13.84945312 -0.0228125 14.57390625 0.609375 15.3203125 C1.29773438 16.15175781 1.29773438 16.15175781 2 17 C-0.7479213 12.72545575 -3.69250989 8.85873847 -7 5 C-4.03824877 5.61277612 -2.61941217 6.25372522 0 8 C-0.66 7.38125 -1.32 6.7625 -2 6.125 C-4 4 -4 4 -4 2 C-1.525 2.99 -1.525 2.99 1 4 C0.67 2.68 0.34 1.36 0 0 Z " fill="#F7F7F7" transform="translate(339,188)"/>
<path d="M0 0 C7.35251669 0.53410863 14.67902003 1.13140916 22 2 C25.02922679 11.48914416 25.72227864 21.19154706 21.5 30.4375 C20.69507796 31.97355956 19.8724463 33.50126189 19 35 C18.34 35 17.68 35 17 35 C17 35.66 17 36.32 17 37 C17.66 37 18.32 37 19 37 C17.50670137 41.47989588 14.0598359 43.91118694 10 46 C7.26631467 46.65837448 4.82752603 46.85118284 2 47 C3.98 44.525 3.98 44.525 6 42 C5.18595703 42.66708984 5.18595703 42.66708984 4.35546875 43.34765625 C3.64003906 43.91355469 2.92460937 44.47945312 2.1875 45.0625 C1.47980469 45.63097656 0.77210938 46.19945312 0.04296875 46.78515625 C-0.63121094 47.18605469 -1.30539062 47.58695313 -2 48 C-2.99 47.67 -3.98 47.34 -5 47 C-4.43410156 46.59007812 -3.86820312 46.18015625 -3.28515625 45.7578125 C-2.55167969 45.21898437 -1.81820313 44.68015625 -1.0625 44.125 C-0.33160156 43.59132812 0.39929688 43.05765625 1.15234375 42.5078125 C3.11098235 41.11987896 3.11098235 41.11987896 4 39 C3.56429688 39.39832031 3.12859375 39.79664063 2.6796875 40.20703125 C-0.97702311 43.460079 -4.35912705 46.24678133 -9 48 C-11.17578125 47.56640625 -11.17578125 47.56640625 -13 47 C-12.35933594 46.731875 -11.71867187 46.46375 -11.05859375 46.1875 C-3.27770728 42.66232938 2.37466455 38.18390672 5.9375 30.25 C7.94486202 23.92867983 8.22032213 16.27902492 5.75 10.0625 C4.0609952 7.10674159 2.1672486 4.61564487 0 2 C0 1.34 0 0.68 0 0 Z " fill="#F7F7F7" transform="translate(394,182)"/>
<path d="M0 0 C-0.33 0.66 -0.66 1.32 -1 2 C-1.6297876 1.98428955 -2.2595752 1.9685791 -2.90844727 1.95239258 C-5.79303825 1.88959768 -8.67748486 1.85086942 -11.5625 1.8125 C-12.55314453 1.78736328 -13.54378906 1.76222656 -14.56445312 1.73632812 C-24.85112433 1.63380316 -31.79728784 4.90460554 -39.33203125 12.06640625 C-40.49877037 13.22518015 -41.6587139 14.39082822 -42.8125 15.5625 C-43.42488525 16.17875244 -44.03727051 16.79500488 -44.66821289 17.42993164 C-49.0911006 21.93663246 -53.10879939 26.6225157 -57.0234375 31.578125 C-59.78515827 34.96205164 -62.8237272 38.00756292 -66 41 C-62.45481116 39.60240095 -62.45481116 39.60240095 -59 38 C-59.66 39.32 -60.32 40.64 -61 42 C-59.02 41.505 -59.02 41.505 -57 41 C-57 41.99 -57 42.98 -57 44 C-47.47040415 43.55881501 -40.99984264 40.54333116 -34 34 C-31.93019623 31.72131695 -29.94132713 29.38879615 -28 27 C-27.505 28.485 -27.505 28.485 -27 30 C-28.94250654 32.07951719 -30.90206906 34.13715585 -32.875 36.1875 C-33.41125 36.76564453 -33.9475 37.34378906 -34.5 37.93945312 C-41.72970426 45.3793232 -50.21668733 48.6444883 -60.3125 50.3125 C-61.27293213 50.47782227 -62.23336426 50.64314453 -63.22290039 50.81347656 C-76.06115838 52.77842265 -89.05429542 52.35773017 -102 52 C-102 51.67 -102 51.34 -102 51 C-101.21753906 50.93941406 -100.43507812 50.87882812 -99.62890625 50.81640625 C-98.61699219 50.73261719 -97.60507813 50.64882812 -96.5625 50.5625 C-95.55316406 50.48128906 -94.54382813 50.40007812 -93.50390625 50.31640625 C-91.06359221 50.26788532 -91.06359221 50.26788532 -90 49 C-91.32 48.34 -92.64 47.68 -94 47 C-89.81854874 45.60618291 -87.96461861 47.29111267 -84 49 C-81.3487244 49.13074579 -81.3487244 49.13074579 -79 49 C-79.99580078 48.61908203 -79.99580078 48.61908203 -81.01171875 48.23046875 C-85.57267141 46.45269596 -89.9053441 44.7297706 -94 42 C-91 41 -91 41 -88.765625 41.92578125 C-87.93546875 42.38339844 -87.1053125 42.84101563 -86.25 43.3125 C-80.75381888 46.1967933 -76.3039306 48 -70 48 C-70.78246094 47.73445313 -71.56492187 47.46890625 -72.37109375 47.1953125 C-73.88896484 46.66550781 -73.88896484 46.66550781 -75.4375 46.125 C-76.95150391 45.60292969 -76.95150391 45.60292969 -78.49609375 45.0703125 C-81 44 -81 44 -82 42 C-81.25234375 42.20496094 -80.5046875 42.40992188 -79.734375 42.62109375 C-78.74953125 42.89050781 -77.7646875 43.15992188 -76.75 43.4375 C-75.77546875 43.70433594 -74.8009375 43.97117188 -73.796875 44.24609375 C-72.87390625 44.49488281 -71.9509375 44.74367187 -71 45 C-70.3090625 45.1959375 -69.618125 45.391875 -68.90625 45.59375 C-66.80110108 46.04238829 -64.89980114 46.09833002 -62.75 46.0625 C-61.5125 46.041875 -60.275 46.02125 -59 46 C-59.83660156 45.85304687 -60.67320312 45.70609375 -61.53515625 45.5546875 C-73.83127534 43.18533565 -84.93473104 38.8713672 -96 33 C-96 32.67 -96 32.34 -96 32 C-90.76336585 32.53503286 -86.77058957 33.7734604 -81.9375 36 C-75.7094652 38.92974808 -75.7094652 38.92974808 -69 40 C-66.57021392 38.45664832 -66.57021392 38.45664832 -64.5625 36.0625 C-63.79035156 35.2271875 -63.01820313 34.391875 -62.22265625 33.53125 C-61.12244141 32.27828125 -61.12244141 32.27828125 -60 31 C-59.40058594 30.3296875 -58.80117188 29.659375 -58.18359375 28.96875 C-57.05155879 27.68700276 -55.92795591 26.39776358 -54.8125 25.1015625 C-51.27852102 21.0039748 -47.6523395 16.99209201 -44 13 C-43.41347656 12.34644531 -42.82695312 11.69289062 -42.22265625 11.01953125 C-29.60135316 -2.43329298 -17.18778187 -1.38691035 0 0 Z " fill="#292929" transform="translate(338,185)"/>
<path d="M0 0 C1.61841797 0.19142578 1.61841797 0.19142578 3.26953125 0.38671875 C6.9833298 1.56499218 8.08561862 3.08646634 10.1875 6.3125 C10.59226562 6.92867187 10.99703125 7.54484375 11.4140625 8.1796875 C13.79483567 14.74484988 13.01792373 24.11119167 10.75 30.625 C6.26872224 40.05926898 -1.04401924 46.76032518 -10.8125 50.3125 C-15.47902908 51.52579756 -20.01747046 51.39517292 -24.8125 51.3125 C-25.3075 49.8275 -25.3075 49.8275 -25.8125 48.3125 C-25.14863281 47.93738281 -24.48476563 47.56226563 -23.80078125 47.17578125 C-18.83728209 44.29912553 -14.6158401 41.62295211 -10.8125 37.3125 C-12.21321493 42.60408974 -15.66737245 45.08728044 -19.8125 48.3125 C-16.754548 46.57690562 -14.17870011 44.92777381 -11.8125 42.3125 C-11.1525 42.6425 -10.4925 42.9725 -9.8125 43.3125 C-10.4725 44.6325 -11.1325 45.9525 -11.8125 47.3125 C-6.72624154 45.94789407 -2.78111134 43.72353785 1.1875 40.3125 C1.5175 39.6525 1.8475 38.9925 2.1875 38.3125 C1.5275 38.3125 0.8675 38.3125 0.1875 38.3125 C0.1875 37.6525 0.1875 36.9925 0.1875 36.3125 C0.8475 36.3125 1.5075 36.3125 2.1875 36.3125 C2.47625 35.425625 2.765 34.53875 3.0625 33.625 C4.1875 30.3125 4.1875 30.3125 5.24609375 28.0703125 C6.44314524 24.56359734 6.41598151 21.57451275 6.375 17.875 C6.36533203 15.95880859 6.36533203 15.95880859 6.35546875 14.00390625 C6.20440607 10.68404045 5.81708154 7.57121405 5.1875 4.3125 C2.66730028 3.97364962 0.14651484 3.64129665 -2.375 3.3125 C-3.43170898 3.16941406 -3.43170898 3.16941406 -4.50976562 3.0234375 C-8.98617855 2.44583583 -13.29911238 2.21760617 -17.8125 2.3125 C-17.8125 1.6525 -17.8125 0.9925 -17.8125 0.3125 C-12.76829335 -2.20960332 -5.42728526 -0.64785162 0 0 Z " fill="#2F2F2F" transform="translate(410.8125,180.6875)"/>
<path d="M0 0 C7.89733825 8.04121688 11.24345947 22.92151358 12.15234375 33.828125 C12 36 12 36 10 39 C8.87056551 36.74113103 8.90412882 35.37952104 8.8125 32.875 C8.1365504 26.00469259 3.76316002 21.64907236 -1 17 C-0.67 16.34 -0.34 15.68 0 15 C1.32 15.66 2.64 16.32 4 17 C2.02 14.36 0.04 11.72 -2 9 C-0.68 9.66 0.64 10.32 2 11 C1.41206743 7.03145513 -0.10448479 4.75427056 -3 2 C-9.92853568 -0.98500819 -16.85654694 -1.51435261 -24.3125 -1.4375 C-25.31708252 -1.43210205 -26.32166504 -1.4267041 -27.35668945 -1.42114258 C-36.90452606 -1.22625733 -45.23630282 0.09688384 -53 6 C-53.66 6 -54.32 6 -55 6 C-60.75982122 16.82537828 -63.45739447 28.82822501 -63 41 C-63.66 41 -64.32 41 -65 41 C-68.38404493 30.84786521 -63.92162884 18.74055652 -59.6875 9.375 C-56.08018378 2.83200002 -51.41404904 0.31711178 -44.5625 -2.3125 C-31.81647056 -5.93101357 -11.68939718 -7.19781209 0 0 Z " fill="#2A2A2A" transform="translate(187,47)"/>
<path d="M0 0 C4.77590489 1.39577502 6.61881387 3.64856845 9.5 7.625 C10.37545559 8.80758318 11.25316903 9.98849733 12.1328125 11.16796875 C12.5959082 11.7923584 13.05900391 12.41674805 13.53613281 13.06005859 C18.16209432 19.19046055 23.1098899 25.0800097 28 31 C28.52416504 31.63679688 29.04833008 32.27359375 29.58837891 32.9296875 C40.92885839 46.65070692 53.55048666 58.01435434 69 67 C67.31640625 67.6796875 67.31640625 67.6796875 65 68 C48.43792564 60.32292825 35.13748232 44.98333743 24 31 C22.96790495 29.73294006 21.93393661 28.4674045 20.8984375 27.203125 C2.15125201 4.30250403 2.15125201 4.30250403 0 0 Z " fill="#232323" transform="translate(176,149)"/>
<path d="M0 0 C3.08325358 -0.0582253 6.16636505 -0.09367134 9.25 -0.125 C10.55904297 -0.15013672 10.55904297 -0.15013672 11.89453125 -0.17578125 C12.73886719 -0.18222656 13.58320313 -0.18867188 14.453125 -0.1953125 C15.22817383 -0.20578613 16.00322266 -0.21625977 16.80175781 -0.22705078 C19.25883539 0.02673444 20.87311542 0.77555848 23 2 C22.360625 2.12375 21.72125 2.2475 21.0625 2.375 C20.381875 2.58125 19.70125 2.7875 19 3 C18.67 3.66 18.34 4.32 18 5 C17.01 4.67 16.02 4.34 15 4 C15.66 5.65 16.32 7.3 17 9 C15.02 8.01 13.04 7.02 11 6 C12.65 7.98 14.3 9.96 16 12 C15.67 12.66 15.34 13.32 15 14 C13.68 12.68 12.36 11.36 11 10 C10.67 10.33 10.34 10.66 10 11 C12.64 13.97 15.28 16.94 18 20 C17.67 20.66 17.34 21.32 17 22 C16.37351562 21.28972656 15.74703125 20.57945312 15.1015625 19.84765625 C14.28429687 18.92855469 13.46703125 18.00945312 12.625 17.0625 C11.81289063 16.14597656 11.00078125 15.22945312 10.1640625 14.28515625 C8.21290653 11.96398605 8.21290653 11.96398605 6 11 C6.51691406 11.54269531 7.03382813 12.08539063 7.56640625 12.64453125 C8.22511719 13.35996094 8.88382812 14.07539063 9.5625 14.8125 C10.55443359 15.87404297 10.55443359 15.87404297 11.56640625 16.95703125 C12.03949219 17.63121094 12.51257813 18.30539063 13 19 C12.67 19.99 12.34 20.98 12 22 C10.02 19.69 8.04 17.38 6 15 C0.77345099 16.47642627 -2.16826439 19.82231936 -5.8125 23.625 C-6.40998047 24.23601562 -7.00746094 24.84703125 -7.62304688 25.4765625 C-9.08895106 26.97764839 -10.54542993 28.48792862 -12 30 C-12.33 29.01 -12.66 28.02 -13 27 C-9.80734634 23.73312514 -6.60491408 20.47627776 -3.39306641 17.22827148 C-2.30211216 16.12224164 -1.213867 15.01353274 -0.12841797 13.90209961 C1.43335749 12.30388749 3.0046602 10.71560096 4.578125 9.12890625 C5.06057678 8.63097061 5.54302856 8.13303497 6.0401001 7.62001038 C8.54639461 5.11248175 10.39611458 3.38930861 14 3 C14 2.34 14 1.68 14 1 C9.38 1 4.76 1 0 1 C0 0.67 0 0.34 0 0 Z " fill="#1D1D1D" transform="translate(324,184)"/>
<path d="M0 0 C1.32 0.33 2.64 0.66 4 1 C3.34 1 2.68 1 2 1 C1.7525 1.8559375 1.505 2.711875 1.25 3.59375 C-4.17633583 18.38051513 -17.0284607 32.96683443 -27 45 C-27.54914063 45.69609375 -28.09828125 46.3921875 -28.6640625 47.109375 C-33.29499047 52.77183669 -38.79549783 57.13118936 -45 61 C-45.66 61 -46.32 61 -47 61 C-45.68 62.98 -44.36 64.96 -43 67 C-43.99 67 -44.98 67 -46 67 C-48.35723489 64.46815512 -49 63.52809907 -49 60 C-46.8046875 58.1328125 -46.8046875 58.1328125 -43.875 56.125 C-42.86566406 55.4134375 -41.85632813 54.701875 -40.81640625 53.96875 C-39.42228516 52.99421875 -39.42228516 52.99421875 -38 52 C-32.28937905 47.74502753 -28.26983949 42.63913285 -24 37 C-23.57525391 36.43958008 -23.15050781 35.87916016 -22.71289062 35.30175781 C-14.29807968 24.1487941 -5.86027643 12.73973137 0 0 Z " fill="#2D2D2D" transform="translate(144,153)"/>
<path d="M0 0 C3.18140975 0 5.3153096 0.42492012 7.78125 2.49609375 C12.32581772 7.44927392 15.2812475 12.88593909 18 19 C18.66 18.34 19.32 17.68 20 17 C23.26985088 23.53970177 21.04850257 32.71096521 19 39.3125 C18.35168104 41.21468585 17.69173508 43.11316905 17 45 C16.34 45 15.68 45 15 45 C15.91 38.37 15.91 38.37 16.5625 35.6875 C17.77208581 28.25718716 17.34140634 22.55273455 13.875 15.8125 C13 14 13 14 13 12 C12.34 12 11.68 12 11 12 C9.375 9.5 9.375 9.5 8 7 C7.34 8.32 6.68 9.64 6 11 C5.67 8.69 5.34 6.38 5 4 C3.46547258 5.53452742 3.7352568 7.12050798 3.5625 9.25 C3.20959335 12.8189108 2.5777322 15.73935345 1 19 C0.67 19 0.34 19 0 19 C0.08378906 18.04738281 0.16757813 17.09476563 0.25390625 16.11328125 C0.35574219 14.85902344 0.45757812 13.60476562 0.5625 12.3125 C0.66691406 11.07113281 0.77132812 9.82976562 0.87890625 8.55078125 C0.98493841 5.44164467 0.77228525 2.99189028 0 0 Z " fill="#1C1C1C" transform="translate(179,66)"/>
<path d="M0 0 C2.625 -0.625 2.625 -0.625 6 0 C13.75996045 8.46010726 17.22351313 22.68215752 18.15234375 33.828125 C18 36 18 36 16 39 C14.87056551 36.74113103 14.90412882 35.37952104 14.8125 32.875 C14.1365504 26.00469259 9.76316002 21.64907236 5 17 C5.33 16.34 5.66 15.68 6 15 C7.32 15.66 8.64 16.32 10 17 C8.02 14.36 6.04 11.72 4 9 C5.32 9.66 6.64 10.32 8 11 C7.42429187 7.11397015 5.58424279 4.88827136 3 2 C2.01 1.34 1.02 0.68 0 0 Z " fill="#1C1C1C" transform="translate(181,47)"/>
<path d="M0 0 C4.5655861 5.18816603 5.22801694 10.27220388 4.875 16.9375 C4.08240216 24.38791972 1.77221626 30.05238606 -4 35 C-4.66 34.67 -5.32 34.34 -6 34 C-6 33.34 -6 32.68 -6 32 C-5.34 32 -4.68 32 -4 32 C-3.71125 31.113125 -3.4225 30.22625 -3.125 29.3125 C-2 26 -2 26 -0.94140625 23.76171875 C0.26041236 20.2360517 0.22840392 17.21853845 0.1875 13.5 C0.18105469 12.2109375 0.17460937 10.921875 0.16796875 9.59375 C0.02755128 6.5894692 -0.40412426 3.93017793 -1 1 C-0.67 0.67 -0.34 0.34 0 0 Z " fill="#818181" transform="translate(417,185)"/>
<path d="M0 0 C-1.61844748 4.03648509 -4.46179619 6.80700073 -7.5 9.8125 C-8.03318848 10.34077393 -8.56637695 10.86904785 -9.11572266 11.41333008 C-22.11981813 24.04041119 -22.11981813 24.04041119 -30 24 C-32.15903145 22.20283439 -33.65526274 20.71087268 -35.375 18.5625 C-35.82488281 18.03333984 -36.27476563 17.50417969 -36.73828125 16.95898438 C-37.84327421 15.65415226 -38.92410254 14.32892473 -40 13 C-39.67 12.34 -39.34 11.68 -39 11 C-38.46890625 11.63808594 -37.9378125 12.27617187 -37.390625 12.93359375 C-36.68421875 13.75988281 -35.9778125 14.58617187 -35.25 15.4375 C-34.55390625 16.26121094 -33.8578125 17.08492187 -33.140625 17.93359375 C-30.95297867 20.04539103 -30.01435618 20.88725833 -27 21 C-18.24857585 17.25947194 -10.26019317 8.46163838 -3.76953125 1.6640625 C-2 0 -2 0 0 0 Z " fill="#272727" transform="translate(140,209)"/>
<path d="M0 0 C-0.33 0.66 -0.66 1.32 -1 2 C-1.6297876 1.98428955 -2.2595752 1.9685791 -2.90844727 1.95239258 C-5.79303825 1.88959768 -8.67748486 1.85086942 -11.5625 1.8125 C-12.55314453 1.78736328 -13.54378906 1.76222656 -14.56445312 1.73632812 C-24.62124901 1.63609428 -31.65645174 4.68663275 -38.9921875 11.796875 C-39.95836421 12.77610816 -40.91930021 13.76053907 -41.875 14.75 C-42.37257813 15.25660156 -42.87015625 15.76320312 -43.3828125 16.28515625 C-44.59323202 17.51885307 -45.79729853 18.75877784 -47 20 C-47.99 19.67 -48.98 19.34 -50 19 C-33.63329807 1.70978511 -23.72272269 -1.91422546 0 0 Z " fill="#3A3A3A" transform="translate(338,185)"/>
<path d="M0 0 C2.03207581 0.53447121 4.05277302 1.11338304 6.0625 1.7265625 C9.75975728 2.85218131 13.45504715 3.67125314 17.23828125 4.45703125 C18.429375 4.70839844 19.62046875 4.95976562 20.84765625 5.21875 C21.7190625 5.40050781 22.59046875 5.58226562 23.48828125 5.76953125 C23.48828125 6.09953125 23.48828125 6.42953125 23.48828125 6.76953125 C13.87788282 7.40318389 6.62881078 5.6945007 -2.51171875 2.76953125 C2.43828125 4.41953125 7.38828125 6.06953125 12.48828125 7.76953125 C12.48828125 8.09953125 12.48828125 8.42953125 12.48828125 8.76953125 C5.15014791 9.33400305 -0.6725999 7.32280229 -7.51171875 4.76953125 C-5.43394286 1.57866113 -4.0059486 -0.36757538 0 0 Z " fill="#DBDBDB" transform="translate(259.51171875,225.23046875)"/>
<path d="M0 0 C0.66 0.33 1.32 0.66 2 1 C1.17757813 1.75023437 0.35515625 2.50046875 -0.4921875 3.2734375 C-12.59137078 13.12050477 -12.59137078 13.12050477 -22 25 C-22.66 24.67 -23.32 24.34 -24 24 C-23.25943359 23.22076172 -23.25943359 23.22076172 -22.50390625 22.42578125 C-21.86324219 21.72839844 -21.22257812 21.03101563 -20.5625 20.3125 C-19.92441406 19.62800781 -19.28632813 18.94351563 -18.62890625 18.23828125 C-16.83812347 16.10906644 -16.83812347 16.10906644 -16.51171875 13.49609375 C-15.85481848 10.29182448 -14.56207688 9.0273088 -12.25 6.75 C-11.23679687 5.72132813 -11.23679687 5.72132813 -10.203125 4.671875 C-7.72577197 2.79189788 -6.02922635 2.48858489 -3 2 C-2.01 1.34 -1.02 0.68 0 0 Z " fill="#3E3E3E" transform="translate(331,187)"/>
<path d="M0 0 C0.66 0.66 1.32 1.32 2 2 C1.67881908 6.81771387 -0.02571755 10.57288306 -2.125 14.875 C-2.7556948 16.18533855 -3.38453513 17.49657098 -4.01171875 18.80859375 C-4.3370459 19.48776855 -4.66237305 20.16694336 -4.99755859 20.86669922 C-6.71664497 24.52509589 -8.32744254 28.23011988 -9.9375 31.9375 C-10.24381348 32.64181152 -10.55012695 33.34612305 -10.86572266 34.07177734 C-11.57871725 35.71383793 -12.28960733 37.35681209 -13 39 C-13.66 38.01 -14.32 37.02 -15 36 C-14.1730957 33.32373047 -14.1730957 33.32373047 -12.67578125 30.1171875 C-11.87430664 28.36535156 -11.87430664 28.36535156 -11.05664062 26.578125 C-10.47602195 25.34339161 -9.89463628 24.10901861 -9.3125 22.875 C-5.80975687 15.34797853 -2.42030238 7.95364387 0 0 Z " fill="#313131" transform="translate(178,83)"/>
<path d="M0 0 C1.61841797 0.19142578 1.61841797 0.19142578 3.26953125 0.38671875 C7.62160679 1.76749774 9.09009762 4.6402678 11.5 8.3125 C12.40255885 10.93812573 11.9194024 12.67765136 11.1875 15.3125 C10.8575 15.3125 10.5275 15.3125 10.1875 15.3125 C9.1975 11.6825 8.2075 8.0525 7.1875 4.3125 C4.33383646 3.97428803 1.47969404 3.6418022 -1.375 3.3125 C-2.17486328 3.21710938 -2.97472656 3.12171875 -3.79882812 3.0234375 C-8.50702167 2.48535824 -13.07397265 2.21073297 -17.8125 2.3125 C-17.8125 1.6525 -17.8125 0.9925 -17.8125 0.3125 C-12.76829335 -2.20960332 -5.42728526 -0.64785162 0 0 Z " fill="#333333" transform="translate(410.8125,180.6875)"/>
<path d="M0 0 C7.75331518 6.88177464 14.03258082 14.55720694 20 23 C19.34 23.66 18.68 24.32 18 25 C17.64284912 24.52167725 17.28569824 24.04335449 16.91772461 23.55053711 C15.26338998 21.3418258 13.60051868 19.13967917 11.9375 16.9375 C11.09541992 15.80924805 11.09541992 15.80924805 10.23632812 14.65820312 C5.77496513 8.76920397 1.1891314 3.1260876 -5 -1 C-7.64632287 -0.6878236 -7.64632287 -0.6878236 -10 0 C-10 -0.99 -10 -1.98 -10 -3 C-5.66351827 -5.00145311 -3.5573557 -2.60145276 0 0 Z " fill="#363636" transform="translate(353,190)"/>
<path d="M0 0 C0.99 0.33 1.98 0.66 3 1 C-3.93 7.93 -10.86 14.86 -18 22 C-18.33 21.01 -18.66 20.02 -19 19 C-12.73 12.73 -6.46 6.46 0 0 Z " fill="#EAEAEA" transform="translate(328,191)"/>
<path d="M0 0 C3.326395 3.11849531 6.17580131 6.41626302 9 10 C13.5104997 15.68458109 17.24832124 20.01670008 24 23 C23.67 23.66 23.34 24.32 23 25 C13.9273292 22.44831134 7.11087628 13.43523756 2 6 C2 5.34 2 4.68 2 4 C1.34 4 0.68 4 0 4 C0 2.68 0 1.36 0 0 Z " fill="#373737" transform="translate(337,204)"/>
<path d="M0 0 C3.08325358 -0.0582253 6.16636505 -0.09367134 9.25 -0.125 C10.55904297 -0.15013672 10.55904297 -0.15013672 11.89453125 -0.17578125 C12.73886719 -0.18222656 13.58320313 -0.18867188 14.453125 -0.1953125 C15.22817383 -0.20578613 16.00322266 -0.21625977 16.80175781 -0.22705078 C19.25883539 0.02673444 20.87311542 0.77555848 23 2 C22.360625 2.12375 21.72125 2.2475 21.0625 2.375 C20.381875 2.58125 19.70125 2.7875 19 3 C18.67 3.66 18.34 4.32 18 5 C17.01 4.67 16.02 4.34 15 4 C15.66 5.65 16.32 7.3 17 9 C14.69 8.01 12.38 7.02 10 6 C10 5.34 10 4.68 10 4 C11.32 3.67 12.64 3.34 14 3 C14 2.34 14 1.68 14 1 C9.38 1 4.76 1 0 1 C0 0.67 0 0.34 0 0 Z " fill="#1B1B1B" transform="translate(324,184)"/>
<path d="M0 0 C1.32 0.33 2.64 0.66 4 1 C3.34 1 2.68 1 2 1 C2.56589844 1.74765625 3.13179688 2.4953125 3.71484375 3.265625 C4.44832031 4.25046875 5.18179687 5.2353125 5.9375 6.25 C6.66839844 7.22453125 7.39929688 8.1990625 8.15234375 9.203125 C11.10202649 13.66818387 11.12010275 16.95054678 11.0625 22.25 C11.05347656 23.32765625 11.04445313 24.4053125 11.03515625 25.515625 C11.02355469 26.33546875 11.01195312 27.1553125 11 28 C8.34058387 25.34058387 8.61425532 23.64509881 8.25 19.9375 C7.45970038 14.12911906 5.93937278 10.48756289 2.33984375 5.90234375 C0.93903466 3.91343988 0.428521 2.37538182 0 0 Z " fill="#333333" transform="translate(391,180)"/>
<path d="M0 0 C0.33 0.99 0.66 1.98 1 3 C1.66 3 2.32 3 3 3 C3.33 2.34 3.66 1.68 4 1 C4.66 4.3 5.32 7.6 6 11 C5.34 10.67 4.68 10.34 4 10 C4 9.01 4 8.02 4 7 C3.34 7 2.68 7 2 7 C2 11.95 2 16.9 2 22 C0 20 0 20 -0.22705078 17.93701172 C-0.21657715 17.10959473 -0.20610352 16.28217773 -0.1953125 15.4296875 C-0.18886719 14.53378906 -0.18242188 13.63789062 -0.17578125 12.71484375 C-0.15902344 11.77769531 -0.14226562 10.84054688 -0.125 9.875 C-0.11597656 8.93011719 -0.10695313 7.98523438 -0.09765625 7.01171875 C-0.07404522 4.67422708 -0.04111516 2.33723877 0 0 Z " fill="#121212" transform="translate(121,85)"/>
<path d="M0 0 C1.12148438 0.30744141 1.12148438 0.30744141 2.265625 0.62109375 C3.25046875 0.89050781 4.2353125 1.15992188 5.25 1.4375 C6.71179688 1.83775391 6.71179688 1.83775391 8.203125 2.24609375 C9.58757812 2.61927734 9.58757812 2.61927734 11 3 C11.6909375 3.1959375 12.381875 3.391875 13.09375 3.59375 C15.19889892 4.04238829 17.10019886 4.09833002 19.25 4.0625 C20.4875 4.041875 21.725 4.02125 23 4 C23 3.67 23 3.34 23 3 C28.53846154 2.63076923 28.53846154 2.63076923 30.875 4.5 C31.24625 4.995 31.6175 5.49 32 6 C29.6628779 6.39780802 27.35335251 6.72829077 25 7 C24.03900391 7.11988281 24.03900391 7.11988281 23.05859375 7.2421875 C17.65657094 7.5907051 13.07619644 6.3006726 8 4.625 C7.32839844 4.40376465 6.65679687 4.1825293 5.96484375 3.95458984 C1.13190232 2.26380464 1.13190232 2.26380464 0 0 Z " fill="#303030" transform="translate(256,227)"/>
<path d="M0 0 C0.33 0.66 0.66 1.32 1 2 C1.66 2.33 2.32 2.66 3 3 C0.69 8.94 -1.62 14.88 -4 21 C-4.99 21 -5.98 21 -7 21 C-4.96192707 13.8821847 -2.59655258 6.93292719 0 0 Z " fill="#303030" transform="translate(193,109)"/>
<path d="M0 0 C2.96404505 2.80804268 5.44499019 5.18315774 7 9 C5.35 7.68 3.7 6.36 2 5 C1.67 5.33 1.34 5.66 1 6 C3.64 8.97 6.28 11.94 9 15 C8.67 15.66 8.34 16.32 8 17 C7.39671875 16.30132812 6.7934375 15.60265625 6.171875 14.8828125 C5.37265625 13.97273437 4.5734375 13.06265625 3.75 12.125 C2.96109375 11.22007812 2.1721875 10.31515625 1.359375 9.3828125 C-0.74691403 7.25560007 -2.25651526 6.09487694 -5 5 C-3.35 3.35 -1.7 1.7 0 0 Z " fill="#282828" transform="translate(333,189)"/>
<path d="M0 0 C0.33 0 0.66 0 1 0 C1.55714963 9.45606739 0.25738186 17.1149093 -3 26 C-3.66 26 -4.32 26 -5 26 C-4.13329546 19.64416673 -3.06965872 13.32448699 -2 7 C-1.67 7 -1.34 7 -1 7 C-0.67 4.69 -0.34 2.38 0 0 Z " fill="#2A2A2A" transform="translate(199,85)"/>
<path d="M0 0 C3.84693108 0.68137525 7.42228773 1.76273005 11.125 3 C17.10256819 4.88119592 22.75230834 5.74959152 29 6 C29 6.33 29 6.66 29 7 C17.6307188 7.72741847 9.82247515 7.35905906 0 1 C0 0.67 0 0.34 0 0 Z " fill="#1F1F1F" transform="translate(218,229)"/>
<path d="M0 0 C0.99 0 1.98 0 3 0 C3.05397335 2.4377963 3.09365616 4.87439685 3.125 7.3125 C3.14175781 8.00279297 3.15851563 8.69308594 3.17578125 9.40429688 C3.21217794 13.17135396 3.14378864 14.78431704 1 18 C-0.2062252 14.38132441 -0.10816918 11.07493749 -0.0625 7.3125 C-0.05798828 6.61060547 -0.05347656 5.90871094 -0.04882812 5.18554688 C-0.03706927 3.45699462 -0.01913454 1.72848635 0 0 Z " fill="#A0A0A0" transform="translate(415,191)"/>
<path d="M0 0 C0.33 0.99 0.66 1.98 1 3 C-0.4375 5.6875 -0.4375 5.6875 -2 8 C-1.34 8 -0.68 8 0 8 C0.433125 6.5459375 0.433125 6.5459375 0.875 5.0625 C2 2 2 2 4 1 C3.39009109 4.55780196 2.4216319 7.6828589 1 11 C-1.71097227 10.62607279 -2.82000467 10.18642373 -4.75 8.1875 C-6 6 -6 6 -6 2 C-5.01 1.67 -4.02 1.34 -3 1 C-3.33 2.32 -3.66 3.64 -4 5 C-3.34 5 -2.68 5 -2 5 C-1.34 3.35 -0.68 1.7 0 0 Z " fill="#202020" transform="translate(174,133)"/>
<path d="M0 0 C3.3782304 3.111528 5.79633875 5.51362626 7 10 C7.125 13.3125 7.125 13.3125 7 16 C4.69534766 13.03786426 2.72409552 9.97847243 0.8125 6.75 C0.28269531 5.85796875 -0.24710938 4.9659375 -0.79296875 4.046875 C-1.39044922 3.03367187 -1.39044922 3.03367187 -2 2 C-1.34 1.34 -0.68 0.68 0 0 Z " fill="#EBEBEB" transform="translate(190,68)"/>
<path d="M0 0 C0.33 0.99 0.66 1.98 1 3 C-1.07430827 5.15524226 -3.15853821 7.29901391 -5.25 9.4375 C-5.83652344 10.04916016 -6.42304688 10.66082031 -7.02734375 11.29101562 C-7.60097656 11.87431641 -8.17460937 12.45761719 -8.765625 13.05859375 C-9.55114746 13.86768188 -9.55114746 13.86768188 -10.35253906 14.69311523 C-12.25940366 16.20577768 -13.58018096 16.7594314 -16 17 C-16.66 16.34 -17.32 15.68 -18 15 C-17.45472656 14.75507813 -16.90945313 14.51015625 -16.34765625 14.2578125 C-9.36600812 10.79682454 -4.90721081 5.97450016 0 0 Z " fill="#2C2C2C" transform="translate(310,212)"/>
<path d="M0 0 C2 3 2 3 1.7578125 5.34765625 C1.54898438 6.24355469 1.34015625 7.13945313 1.125 8.0625 C0.00279393 13.45772147 -0.21446034 18.50743237 0 24 C-0.66 24 -1.32 24 -2 24 C-4.6931501 15.92054971 -2.04007632 7.9660123 0 0 Z " fill="#383838" transform="translate(124,64)"/>
<path d="M0 0 C2 3 2 3 1.9375 6.375 C0.84501759 10.59926533 -0.71402978 12.21956366 -4 15 C-5.0686132 11.79416039 -5.31727934 9.72808505 -3.953125 6.59765625 C-2.69255716 4.35625332 -1.38949795 2.16357812 0 0 Z " fill="#3C3C3C" transform="translate(129,75)"/>
<path d="M0 0 C-0.33 0.66 -0.66 1.32 -1 2 C-10.24 2 -19.48 2 -29 2 C-22.6277285 -4.3722715 -8.06768053 -0.65099439 0 0 Z " fill="#535353" transform="translate(338,185)"/>
<path d="M0 0 C2.625 -0.625 2.625 -0.625 6 0 C8.58076595 3.04222741 10.5522206 6.28196731 12 10 C11.66015625 12.328125 11.66015625 12.328125 11 14 C8.11424181 13.60196439 7.17810487 13.20990931 5.25 10.9375 C4.8375 10.298125 4.425 9.65875 4 9 C5.32 9.66 6.64 10.32 8 11 C7.42429187 7.11397015 5.58424279 4.88827136 3 2 C2.01 1.34 1.02 0.68 0 0 Z " fill="#424242" transform="translate(181,47)"/>
<path d="M0 0 C2.69082872 0.17635452 5.32851446 0.61835921 8 1 C8 1.66 8 2.32 8 3 C7.34 3 6.68 3 6 3 C5.67 3.99 5.34 4.98 5 6 C2.03 5.505 2.03 5.505 -1 5 C-1 1 -1 1 0 0 Z " fill="#F3F3F3" transform="translate(249,223)"/>
<path d="M0 0 C2.5625 2.1875 2.5625 2.1875 5 5 C5.125 7.5 5.125 7.5 4 10 C1.4375 12.8125 1.4375 12.8125 -1 15 C-0.67 14.21625 -0.34 13.4325 0 12.625 C1.11866511 10.15667503 1.11866511 10.15667503 1 8 C0.01 8.99 -0.98 9.98 -2 11 C-1.67 9.9275 -1.34 8.855 -1 7.75 C0.1717751 4.00268399 0.1717751 4.00268399 0 0 Z " fill="#343434" transform="translate(155,162)"/>
<path d="M0 0 C0.99 0.33 1.98 0.66 3 1 C-0.3810038 5.13621084 -3.66590534 8.81316569 -8 12 C-8 8 -8 8 -6.25 5.859375 C-5.5075 5.16328125 -4.765 4.4671875 -4 3.75 C-3.2575 3.04359375 -2.515 2.3371875 -1.75 1.609375 C-1.1725 1.07828125 -0.595 0.5471875 0 0 Z " fill="#979797" transform="translate(323,190)"/>
<path d="M0 0 C3.88268886 1.29422962 5.02735542 3.1924956 7.5625 6.375 C8.34753906 7.35210937 9.13257813 8.32921875 9.94140625 9.3359375 C11.36160614 11.17384324 12.71160622 13.06740933 14 15 C11 15 11 15 8.80859375 12.98828125 C8.02613281 12.10527344 7.24367187 11.22226563 6.4375 10.3125 C5.65246094 9.44238281 4.86742187 8.57226562 4.05859375 7.67578125 C2.11096532 5.14423386 1.00372692 3.01118076 0 0 Z " fill="#222222" transform="translate(197,174)"/>
<path d="M0 0 C-1.58561638 3.85593074 -4.06509954 6.33216291 -7 9.25 C-7.886875 10.14203125 -8.77375 11.0340625 -9.6875 11.953125 C-12 14 -12 14 -14 14 C-12.41438362 10.14406926 -9.93490046 7.66783709 -7 4.75 C-6.113125 3.85796875 -5.22625 2.9659375 -4.3125 2.046875 C-2 0 -2 0 0 0 Z " fill="#111111" transform="translate(140,209)"/>
<path d="M0 0 C0.33 0.99 0.66 1.98 1 3 C7.435 2.505 7.435 2.505 14 2 C13.67 2.99 13.34 3.98 13 5 C10.6739143 5.38063221 8.33944736 5.71269945 6 6 C5.67 5.67 5.34 5.34 5 5 C3.65252916 4.76924918 2.29622435 4.58846937 0.9375 4.4375 C-0.361875 4.293125 -1.66125 4.14875 -3 4 C-2.01 2.68 -1.02 1.36 0 0 Z " fill="#111111" transform="translate(280,226)"/>
<path d="M0 0 C0.99 0.33 1.98 0.66 3 1 C-0.96 5.62 -4.92 10.24 -9 15 C-9.66 14.34 -10.32 13.68 -11 13 C-10.28972656 12.22914063 -9.57945312 11.45828125 -8.84765625 10.6640625 C-7.9191529 9.65114976 -6.99077394 8.63812299 -6.0625 7.625 C-5.59392578 7.11710938 -5.12535156 6.60921875 -4.64257812 6.0859375 C-2.02273232 3.25734146 -2.02273232 3.25734146 0 0 Z " fill="#2D2D2D" transform="translate(287,205)"/>
<path d="M0 0 C3.88397689 1.55002747 6.02979619 4.00476621 8.75 7.125 C9.94882813 8.49011719 9.94882813 8.49011719 11.171875 9.8828125 C12.07679688 10.93082031 12.07679688 10.93082031 13 12 C12.34 12.66 11.68 13.32 11 14 C3.00528402 6.20739762 3.00528402 6.20739762 0 2 C0 1.34 0 0.68 0 0 Z " fill="#242424" transform="translate(176,191)"/>
<path d="M0 0 C4.6875 3.61328125 4.6875 3.61328125 6 5 C6 5.99 6 6.98 6 8 C6.66 8.33 7.32 8.66 8 9 C6.68 9 5.36 9 4 9 C3.67 9.66 3.34 10.32 3 11 C2.01 11 1.02 11 0 11 C0 7.37 0 3.74 0 0 Z " fill="#A7A7A7" transform="translate(184,70)"/>
<path d="M0 0 C1.65 0 3.3 0 5 0 C4.35550393 3.01217112 3.34977818 5.51655836 1.9375 8.25 C1.57527344 8.95640625 1.21304688 9.6628125 0.83984375 10.390625 C0.56269531 10.92171875 0.28554687 11.4528125 0 12 C-0.33 12 -0.66 12 -1 12 C-1.14285714 3.42857143 -1.14285714 3.42857143 0 0 Z " fill="#E3E3E3" transform="translate(124,74)"/>
<path d="M0 0 C0 0.33 0 0.66 0 1 C-13.6332574 2.14806378 -13.6332574 2.14806378 -20 2 C-20 1.34 -20 0.68 -20 0 C-14.38266934 -2.80866533 -5.992168 -0.76091022 0 0 Z " fill="#3F3F3F" transform="translate(413,181)"/>
<path d="M0 0 C3.44758183 1.44282059 5.28029268 3.24317911 7.625 6.125 C8.70709803 7.45281461 9.82405239 8.75453824 11 10 C11.66 10 12.32 10 13 10 C13 10.66 13 11.32 13 12 C12.01 12.33 11.02 12.66 10 13 C8.32722165 11.21371169 6.66175557 9.4214925 5 7.625 C4.28457031 6.86316406 4.28457031 6.86316406 3.5546875 6.0859375 C0 2.2265625 0 2.2265625 0 0 Z " fill="#CBCBCB" transform="translate(330,195)"/>
<path d="M0 0 C1.33998047 0.06960937 1.33998047 0.06960937 2.70703125 0.140625 C3.60808594 0.17671875 4.50914062 0.2128125 5.4375 0.25 C6.46810547 0.31960937 6.46810547 0.31960937 7.51953125 0.390625 C5.86953125 2.040625 4.21953125 3.690625 2.51953125 5.390625 C1.85953125 5.060625 1.19953125 4.730625 0.51953125 4.390625 C0.84953125 3.730625 1.17953125 3.070625 1.51953125 2.390625 C0.92140625 2.90625 0.32328125 3.421875 -0.29296875 3.953125 C-1.01484375 4.4275 -1.73671875 4.901875 -2.48046875 5.390625 C-3.47046875 5.060625 -4.46046875 4.730625 -5.48046875 4.390625 C-3.17521711 0.50003419 -3.17521711 0.50003419 0 0 Z " fill="#EFEFEF" transform="translate(329.48046875,185.609375)"/>
<path d="M0 0 C1.10933212 3.32799637 1.50456773 6.53197414 2 10 C2.33 10.99 2.66 11.98 3 13 C3.66 13 4.32 13 5 13 C4.67 14.32 4.34 15.64 4 17 C1.40727197 13.80019419 -1.02491438 10.62099029 -3 7 C-2.55308932 3.8157614 -2.26476996 2.26476996 0 0 Z " fill="#1A1A1A" transform="translate(163,120)"/>
<path d="M0 0 C0.66 0.99 1.32 1.98 2 3 C-2.03237083 6.68639819 -5.81515074 10.04127917 -11 12 C-13.17578125 11.56640625 -13.17578125 11.56640625 -15 11 C-14.33613281 10.70867187 -13.67226563 10.41734375 -12.98828125 10.1171875 C-7.27089599 7.46298529 -3.61767738 5.18533757 0 0 Z " fill="#D0D0D0" transform="translate(396,218)"/>
<path d="M0 0 C6.45595855 5.44041451 6.45595855 5.44041451 9.1875 8.25 C11.02402063 10.02319233 12.66608272 10.99974974 15 12 C12.83203125 12.83203125 12.83203125 12.83203125 10 13 C7.92132779 11.26119829 6.3913693 9.73971591 4.6875 7.6875 C4.23310547 7.17509766 3.77871094 6.66269531 3.31054688 6.13476562 C0 2.31643562 0 2.31643562 0 0 Z " fill="#212121" transform="translate(100,220)"/>
<path d="M0 0 C5.96564796 0.50771472 10.63809899 2.38592128 16 5 C14.390625 6.1796875 14.390625 6.1796875 12 7 C8.984375 5.8828125 8.984375 5.8828125 5.75 4.125 C4.67234375 3.55007812 3.5946875 2.97515625 2.484375 2.3828125 C1.66453125 1.92648438 0.8446875 1.47015625 0 1 C0 0.67 0 0.34 0 0 Z " fill="#2C2C2C" transform="translate(242,217)"/>
<path d="M0 0 C1.56633048 2.48770135 2.04100928 3.65552204 1.6875 6.625 C1 9 1 9 0 11 C-5 5.25 -5 5.25 -5 3 C-2.5 1.375 -2.5 1.375 0 0 Z " fill="#E6E6E6" transform="translate(102,211)"/>
<path d="M0 0 C0.63615234 0.56267578 0.63615234 0.56267578 1.28515625 1.13671875 C4.40241473 3.85661241 7.52022842 6.41370208 10.9375 8.75 C11.948125 9.4925 12.95875 10.235 14 11 C14 11.66 14 12.32 14 13 C13.34 13 12.68 13 12 13 C12 12.34 12 11.68 12 11 C11.195625 10.9071875 11.195625 10.9071875 10.375 10.8125 C6.84623162 9.60528977 4.67661276 7.56023829 2 5 C0.625 2.1875 0.625 2.1875 0 0 Z " fill="#212121" transform="translate(372,214)"/>
<path d="M0 0 C0.33 0.99 0.66 1.98 1 3 C-3.29 7.29 -7.58 11.58 -12 16 C-12.66 15.67 -13.32 15.34 -14 15 C-13.24074219 14.25234375 -12.48148438 13.5046875 -11.69921875 12.734375 C-10.69517864 11.73971844 -9.69127983 10.74491923 -8.6875 9.75 C-8.18798828 9.25886719 -7.68847656 8.76773438 -7.17382812 8.26171875 C-4.54328661 5.64859804 -2.12314838 3.04342089 0 0 Z " fill="#D4D4D4" transform="translate(142,207)"/>
<path d="M0 0 C2.65350843 3.20251017 4.87736478 6.43011349 7 10 C7.66 10.66 8.32 11.32 9 12 C8.01 12.66 7.02 13.32 6 14 C4.98576166 12.61447798 3.98912998 11.21605712 3 9.8125 C2.443125 9.03519531 1.88625 8.25789063 1.3125 7.45703125 C-0.151369 4.71663363 -0.26080213 3.05899163 0 0 Z " fill="#303030" transform="translate(153,112)"/>
<path d="M0 0 C3.2626876 3.08632611 6.02235218 5.93483504 8 10 C7.67 10.66 7.34 11.32 7 12 C4 11 4 11 2.83203125 9.2578125 C2.49558594 8.55398437 2.15914062 7.85015625 1.8125 7.125 C1.46832031 6.42632812 1.12414062 5.72765625 0.76953125 5.0078125 C0 3 0 3 0 0 Z " fill="#1B1B1B" transform="translate(141,142)"/>
<path d="M0 0 C2.54283506 2.54283506 2.43103635 3.90544662 2.75 7.4375 C2.84796875 8.40558594 2.9459375 9.37367187 3.046875 10.37109375 C3 13 3 13 1 16 C-0.40741875 13.18516249 -0.38449037 10.56756106 -0.625 7.4375 C-0.72039062 6.26058594 -0.81578125 5.08367187 -0.9140625 3.87109375 C-0.95660156 2.44990234 -0.95660156 2.44990234 -1 1 C-0.67 0.67 -0.34 0.34 0 0 Z " fill="#252525" transform="translate(196,70)"/>
<path d="M0 0 C0.375 2.25 0.375 2.25 0 5 C-2.8125 7.375 -2.8125 7.375 -6 9 C-6.99 8.67 -7.98 8.34 -9 8 C-7.6905332 6.66368764 -6.37734515 5.33102075 -5.0625 4 C-3.96615234 2.88625 -3.96615234 2.88625 -2.84765625 1.75 C-1 0 -1 0 0 0 Z " fill="#E1E1E1" transform="translate(280,218)"/>
<path d="M0 0 C-0.66 1.98 -1.32 3.96 -2 6 C-2.99 6 -3.98 6 -5 6 C-5.33 6.66 -5.66 7.32 -6 8 C-6.66 6.68 -7.32 5.36 -8 4 C-2.25 0 -2.25 0 0 0 Z " fill="#E6E6E6" transform="translate(142,48)"/>
<path d="M0 0 C-2.05513898 1.02756949 -4.0099724 2.00341911 -6.1875 2.75 C-8.35529424 3.94726712 -8.35529424 3.94726712 -8.75 7.125 C-8.8325 8.07375 -8.915 9.0225 -9 10 C-9.33 10 -9.66 10 -10 10 C-10.08096803 8.54257537 -10.13917774 7.08387193 -10.1875 5.625 C-10.22230469 4.81289062 -10.25710937 4.00078125 -10.29296875 3.1640625 C-10.19628906 2.44992188 -10.09960938 1.73578125 -10 1 C-6.1496895 -1.56687367 -4.41430237 -0.83288724 0 0 Z " fill="#464646" transform="translate(146,68)"/>
<path d="M0 0 C0.99 0.33 1.98 0.66 3 1 C0.03 3.97 -2.94 6.94 -6 10 C-6.66 9.34 -7.32 8.68 -8 8 C-5.36 5.36 -2.72 2.72 0 0 Z " fill="#D4D4D4" transform="translate(328,191)"/>
<path d="M0 0 C0 2.62113708 -0.31292445 4.50935112 -1 7 C-3.64 6.67 -6.28 6.34 -9 6 C-6.59027489 3.59027489 -4.04587368 2.49053393 -1 1 C-0.67 0.67 -0.34 0.34 0 0 Z " fill="#2B2B2B" transform="translate(278,223)"/>
<path d="M0 0 C0.66 0.66 1.32 1.32 2 2 C2.66 1.34 3.32 0.68 4 0 C4 4.62 4 9.24 4 14 C3.67 14 3.34 14 3 14 C2.49528803 12.23050388 1.99639315 10.45934777 1.5 8.6875 C1.2215625 7.70136719 0.943125 6.71523437 0.65625 5.69921875 C0 3 0 3 0 0 Z " fill="#060606" transform="translate(195,83)"/>
<path d="M0 0 C3 1 3 1 4.38671875 3.28515625 C4.81597656 4.20167969 5.24523437 5.11820312 5.6875 6.0625 C6.34298828 7.44115234 6.34298828 7.44115234 7.01171875 8.84765625 C7.33785156 9.55792969 7.66398438 10.26820312 8 11 C7.01 11.495 7.01 11.495 6 12 C5.34 10.02 4.68 8.04 4 6 C3.34 6 2.68 6 2 6 C1.34 5.34 0.68 4.68 0 4 C0 2.68 0 1.36 0 0 Z " fill="#272727" transform="translate(188,72)"/>
<path d="M0 0 C3 1 3 1 4.75 3.9375 C5.1625 4.948125 5.575 5.95875 6 7 C5.67 7.66 5.34 8.32 5 9 C4.566875 8.505 4.13375 8.01 3.6875 7.5 C2.00259517 5.66781808 2.00259517 5.66781808 -1 6 C-0.67 4.02 -0.34 2.04 0 0 Z " fill="#EBEBEB" transform="translate(185,51)"/>
<path d="M0 0 C0.75 1.75 0.75 1.75 1 4 C-1.30178819 6.81329667 -4.0515284 8.89394885 -7 11 C-7.66 10.67 -8.32 10.34 -9 10 C-8.27683594 9.29423828 -8.27683594 9.29423828 -7.5390625 8.57421875 C-6.90742188 7.95160156 -6.27578125 7.32898438 -5.625 6.6875 C-4.68527344 5.76517578 -4.68527344 5.76517578 -3.7265625 4.82421875 C-1.81913393 2.91187472 -1.81913393 2.91187472 0 0 Z " fill="#E0E0E0" transform="translate(418,216)"/>
<path d="M0 0 C-1.5294997 3.44137432 -3.45369552 6.2222133 -6 9 C-6.99 9 -7.98 9 -9 9 C-7.45665977 5.21180126 -4.44676575 0 0 0 Z " fill="#171717" transform="translate(277,219)"/>
<path d="M0 0 C6.44541485 6.26637555 6.44541485 6.26637555 9 10 C8.67 10.99 8.34 11.98 8 13 C6.99406757 11.8803014 5.9954151 10.7540588 5 9.625 C4.1646875 8.68527344 4.1646875 8.68527344 3.3125 7.7265625 C2 6 2 6 2 4 C1.34 4 0.68 4 0 4 C0 2.68 0 1.36 0 0 Z " fill="#2E2E2E" transform="translate(337,204)"/>
<path d="M0 0 C2.63032833 0.45091343 4.96251867 0.98462304 7.4375 2 C10.27949909 3.10907282 12.98593192 3.57943236 16 4 C16 4.33 16 4.66 16 5 C12.7 5 9.4 5 6 5 C6 4.34 6 3.68 6 3 C4.02 2.34 2.04 1.68 0 1 C0 0.67 0 0.34 0 0 Z " fill="#252525" transform="translate(244,231)"/>
<path d="M0 0 C0.66 0 1.32 0 2 0 C1.67 2.64 1.34 5.28 1 8 C-0.98 8.66 -2.96 9.32 -5 10 C-3.35 6.7 -1.7 3.4 0 0 Z " fill="#D8D8D8" transform="translate(146,154)"/>
<path d="M0 0 C1.31625194 2.63250388 0.74813658 3.80179056 0.0625 6.625 C-0.13214844 7.44226563 -0.32679688 8.25953125 -0.52734375 9.1015625 C-0.68332031 9.72804688 -0.83929688 10.35453125 -1 11 C-1.66 11 -2.32 11 -3 11 C-3.75 7.75 -3.75 7.75 -4 4 C-2.0625 1.5625 -2.0625 1.5625 0 0 Z " fill="#272727" transform="translate(134,70)"/>
<path d="M0 0 C3.63 1.32 7.26 2.64 11 4 C11 4.33 11 4.66 11 5 C6.45194365 5.17835515 3.1205746 4.99785435 -1 3 C-0.67 2.01 -0.34 1.02 0 0 Z " fill="#C8C8C8" transform="translate(250,230)"/>
<path d="M0 0 C1.32 0.33 2.64 0.66 4 1 C3.34 1 2.68 1 2 1 C3.98 3.64 5.96 6.28 8 9 C7.34 9.66 6.68 10.32 6 11 C4.99126984 9.73608512 3.99328178 8.46359117 3 7.1875 C2.443125 6.47980469 1.88625 5.77210938 1.3125 5.04296875 C0 3 0 3 0 0 Z " fill="#282828" transform="translate(391,180)"/>
<path d="M0 0 C3.82946843 1.45255699 5.12050295 3.42895561 7 7 C6.01 7.33 5.02 7.66 4 8 C0 3.375 0 3.375 0 0 Z " fill="#2E2E2E" transform="translate(171,184)"/>
<path d="M0 0 C1 3 1 3 0.3125 5 C-1.17477001 7.26631621 -2.75769234 8.50512823 -5 10 C-5.66 9.67 -6.32 9.34 -7 9 C-4.69 6.03 -2.38 3.06 0 0 Z " fill="#DFDFDF" transform="translate(127,184)"/>
<path d="M0 0 C0.66 0.66 1.32 1.32 2 2 C0.02 4.97 -1.96 7.94 -4 11 C-5 8 -5 8 -4.00390625 5.95703125 C-3.52824219 5.24933594 -3.05257812 4.54164063 -2.5625 3.8125 C-2.08941406 3.09707031 -1.61632812 2.38164062 -1.12890625 1.64453125 C-0.75636719 1.10183594 -0.38382813 0.55914062 0 0 Z " fill="#222222" transform="translate(156,183)"/>
<path d="M0 0 C0.33 0.99 0.66 1.98 1 3 C-1 6 -1 6 -3.125 6.6875 C-3.74375 6.790625 -4.3625 6.89375 -5 7 C-5.33 5.35 -5.66 3.7 -6 2 C-5.01 1.67 -4.02 1.34 -3 1 C-3.33 2.32 -3.66 3.64 -4 5 C-3.34 5 -2.68 5 -2 5 C-1.34 3.35 -0.68 1.7 0 0 Z " fill="#414141" transform="translate(174,133)"/>
<path d="M0 0 C3.72409961 0.9310249 5.20083797 1.58692928 8 4 C8.33 4.66 8.66 5.32 9 6 C8.01 6.33 7.02 6.66 6 7 C4.02 4.69 2.04 2.38 0 0 Z " fill="#C2C2C2" transform="translate(332,193)"/>
<path d="M0 0 C1 4 1 4 -0.9375 7.25 C-1.618125 8.1575 -2.29875 9.065 -3 10 C-3.66 9.01 -4.32 8.02 -5 7 C-3.35 4.69 -1.7 2.38 0 0 Z " fill="#343434" transform="translate(150,192)"/>
<path d="M0 0 C3.465 1.98 3.465 1.98 7 4 C7 4.99 7 5.98 7 7 C4.13302508 5.71480435 2.02392288 4.42870746 0 2 C0 1.34 0 0.68 0 0 Z " fill="#565656" transform="translate(186,62)"/>
<path d="M0 0 C3.465 1.98 3.465 1.98 7 4 C6.01 4.66 5.02 5.32 4 6 C2.02 4.68 0.04 3.36 -2 2 C-1.34 1.34 -0.68 0.68 0 0 Z " fill="#2F2F2F" transform="translate(213,224)"/>
<path d="M0 0 C2.31 1.98 4.62 3.96 7 6 C6.34 6.66 5.68 7.32 5 8 C2.5 5.6875 2.5 5.6875 0 3 C0 2.01 0 1.02 0 0 Z " fill="#1A1A1A" transform="translate(182,197)"/>
<path d="M0 0 C2.31 1.98 4.62 3.96 7 6 C6.34 6.66 5.68 7.32 5 8 C2.5 5.6875 2.5 5.6875 0 3 C0 2.01 0 1.02 0 0 Z " fill="#191919" transform="translate(204,182)"/>
<path d="M0 0 C0.33 0.66 0.66 1.32 1 2 C-0.65 4.31 -2.3 6.62 -4 9 C-4.66 8.67 -5.32 8.34 -6 8 C-6 6 -6 6 -3.5625 3.4375 C-2.716875 2.633125 -1.87125 1.82875 -1 1 C-0.67 0.67 -0.34 0.34 0 0 Z " fill="#D2D2D2" transform="translate(159,171)"/>
<path d="M0 0 C2.3773161 2.3773161 2.67028521 3.70285207 3 7 C2.34 7.66 1.68 8.32 1 9 C-0.61949011 6.42786866 -1.04408751 5.32330841 -0.625 2.25 C-0.41875 1.5075 -0.2125 0.765 0 0 Z " fill="#292929" transform="translate(138,83)"/>
<path d="M0 0 C0.80824219 0.19464844 1.61648438 0.38929688 2.44921875 0.58984375 C3.06410156 0.74582031 3.67898438 0.90179688 4.3125 1.0625 C4.3125 1.3925 4.3125 1.7225 4.3125 2.0625 C-4.25892857 2.34821429 -4.25892857 2.34821429 -7.6875 0.0625 C-4.39053895 -1.03648702 -3.28255097 -0.80874444 0 0 Z " fill="#CCCCCC" transform="translate(267.6875,231.9375)"/>
<path d="M0 0 C1.32 1.32 2.64 2.64 4 4 C2.35 4.66 0.7 5.32 -1 6 C-1.33 5.34 -1.66 4.68 -2 4 C-1.0625 1.875 -1.0625 1.875 0 0 Z " fill="#ECECEC" transform="translate(302,185)"/>
<path d="M0 0 C2.29013653 3.4352048 2.17842973 4.985331 2 9 C0.10786631 6.61426621 -1.02391783 4.92824652 -2 2 C-1.34 1.34 -0.68 0.68 0 0 Z " fill="#D1D1D1" transform="translate(195,75)"/>
<path d="M0 0 C1.65 1.65 3.3 3.3 5 5 C4.67 5.66 4.34 6.32 4 7 C1.5 5.6875 1.5 5.6875 -1 4 C-1 1 -1 1 0 0 Z " fill="#E2E2E2" transform="translate(187,59)"/>
<path d="M0 0 C0.33 0 0.66 0 1 0 C0.67 2.64 0.34 5.28 0 8 C-0.66 8 -1.32 8 -2 8 C-1.125 1.125 -1.125 1.125 0 0 Z " fill="#151515" transform="translate(196,103)"/>
</svg>
